<?xml version="1.0" encoding="UTF-8" standalone="no"?>
<!DOCTYPE svg PUBLIC "-//W3C//DTD SVG 1.1//EN"
 "http://www.w3.org/Graphics/SVG/1.1/DTD/svg11.dtd">
<!-- Generated by graphviz version 2.43.0 (0)
 -->
<!-- Title: G Pages: 1 -->
<svg width="1695pt" height="1050pt"
 viewBox="0.00 0.00 1695.00 1050.00" xmlns="http://www.w3.org/2000/svg" xmlns:xlink="http://www.w3.org/1999/xlink">
<g id="graph0" class="graph" transform="scale(1 1) rotate(0) translate(4 1046)">
<title>G</title>
<polygon fill="white" stroke="transparent" points="-4,4 -4,-1046 1691,-1046 1691,4 -4,4"/>
<!-- aws_autoscaling_group.web -->
<g id="node1" class="node">
<title>aws_autoscaling_group.web</title>
<polygon fill="none" stroke="black" points="1687,-585 1477,-585 1477,-549 1687,-549 1687,-585"/>
<text text-anchor="middle" x="1582" y="-563.3" font-family="sans-serif" font-size="14.00">aws_autoscaling_group.web</text>
</g>
<!-- aws_launch_template.web -->
<g id="node8" class="node">
<title>aws_launch_template.web</title>
<polygon fill="none" stroke="black" points="1400,-820 1202,-820 1202,-784 1400,-784 1400,-820"/>
<text text-anchor="middle" x="1301" y="-798.3" font-family="sans-serif" font-size="14.00">aws_launch_template.web</text>
</g>
<!-- aws_autoscaling_group.web&#45;&gt;aws_launch_template.web -->
<g id="edge1" class="edge">
<title>aws_autoscaling_group.web&#45;&gt;aws_launch_template.web</title>
<path fill="none" stroke="black" d="M1572.12,-585.28C1553.17,-622.42 1505.21,-707.15 1441,-754 1425.86,-765.05 1407.97,-773.7 1390.16,-780.44"/>
<polygon fill="black" stroke="black" points="1388.52,-777.31 1380.29,-783.98 1390.89,-783.89 1388.52,-777.31"/>
</g>
<!-- aws_lb_target_group.target -->
<g id="node12" class="node">
<title>aws_lb_target_group.target</title>
<polygon fill="none" stroke="black" points="1097,-512 893,-512 893,-476 1097,-476 1097,-512"/>
<text text-anchor="middle" x="995" y="-490.3" font-family="sans-serif" font-size="14.00">aws_lb_target_group.target</text>
</g>
<!-- aws_autoscaling_group.web&#45;&gt;aws_lb_target_group.target -->
<g id="edge2" class="edge">
<title>aws_autoscaling_group.web&#45;&gt;aws_lb_target_group.target</title>
<path fill="none" stroke="black" d="M1543.98,-548.9C1516.33,-536.33 1477.21,-520.54 1441,-513 1329,-489.67 1197.82,-486.96 1107.04,-488.83"/>
<polygon fill="black" stroke="black" points="1106.92,-485.33 1097,-489.06 1107.08,-492.33 1106.92,-485.33"/>
</g>
<!-- aws_subnet.private_a -->
<g id="node31" class="node">
<title>aws_subnet.private_a</title>
<polygon fill="none" stroke="black" points="1078.5,-658 911.5,-658 911.5,-622 1078.5,-622 1078.5,-658"/>
<text text-anchor="middle" x="995" y="-636.3" font-family="sans-serif" font-size="14.00">aws_subnet.private_a</text>
</g>
<!-- aws_autoscaling_group.web&#45;&gt;aws_subnet.private_a -->
<g id="edge3" class="edge">
<title>aws_autoscaling_group.web&#45;&gt;aws_subnet.private_a</title>
<path fill="none" stroke="black" d="M1543.98,-585.1C1516.33,-597.67 1477.21,-613.46 1441,-621 1321.27,-645.94 1179.64,-647.32 1088.86,-644.73"/>
<polygon fill="black" stroke="black" points="1088.7,-641.22 1078.59,-644.41 1088.48,-648.22 1088.7,-641.22"/>
</g>
<!-- aws_subnet.private_c -->
<g id="node32" class="node">
<title>aws_subnet.private_c</title>
<polygon fill="none" stroke="black" points="1078,-188 912,-188 912,-152 1078,-152 1078,-188"/>
<text text-anchor="middle" x="995" y="-166.3" font-family="sans-serif" font-size="14.00">aws_subnet.private_c</text>
</g>
<!-- aws_autoscaling_group.web&#45;&gt;aws_subnet.private_c -->
<g id="edge4" class="edge">
<title>aws_autoscaling_group.web&#45;&gt;aws_subnet.private_c</title>
<path fill="none" stroke="black" d="M1580.6,-548.62C1578.13,-486.46 1560.85,-283.03 1441,-195 1335.44,-117.47 1174.94,-131.53 1078.29,-149.96"/>
<polygon fill="black" stroke="black" points="1077.41,-146.57 1068.27,-151.93 1078.76,-153.44 1077.41,-146.57"/>
</g>
<!-- aws_db_instance.mariadb_multi_az -->
<g id="node2" class="node">
<title>aws_db_instance.mariadb_multi_az</title>
<polygon fill="none" stroke="black" points="1125,-808 865,-808 865,-772 1125,-772 1125,-808"/>
<text text-anchor="middle" x="995" y="-786.3" font-family="sans-serif" font-size="14.00">aws_db_instance.mariadb_multi_az</text>
</g>
<!-- aws_db_subnet_group.lab -->
<g id="node3" class="node">
<title>aws_db_subnet_group.lab</title>
<polygon fill="none" stroke="black" points="719,-712 523,-712 523,-676 719,-676 719,-712"/>
<text text-anchor="middle" x="621" y="-690.3" font-family="sans-serif" font-size="14.00">aws_db_subnet_group.lab</text>
</g>
<!-- aws_db_instance.mariadb_multi_az&#45;&gt;aws_db_subnet_group.lab -->
<g id="edge5" class="edge">
<title>aws_db_instance.mariadb_multi_az&#45;&gt;aws_db_subnet_group.lab</title>
<path fill="none" stroke="black" d="M924.03,-771.94C860.87,-755.64 767.99,-731.67 701.93,-714.63"/>
<polygon fill="black" stroke="black" points="702.53,-711.17 691.97,-712.06 700.78,-717.95 702.53,-711.17"/>
</g>
<!-- aws_security_group.rds -->
<g id="node28" class="node">
<title>aws_security_group.rds</title>
<polygon fill="none" stroke="black" points="350,-836 171,-836 171,-800 350,-800 350,-836"/>
<text text-anchor="middle" x="260.5" y="-814.3" font-family="sans-serif" font-size="14.00">aws_security_group.rds</text>
</g>
<!-- aws_db_instance.mariadb_multi_az&#45;&gt;aws_security_group.rds -->
<g id="edge6" class="edge">
<title>aws_db_instance.mariadb_multi_az&#45;&gt;aws_security_group.rds</title>
<path fill="none" stroke="black" d="M878.36,-808.05C861.83,-810.07 845.01,-811.82 829,-813 664.94,-825.11 473.49,-823.55 360.16,-821"/>
<polygon fill="black" stroke="black" points="360.19,-817.5 350.11,-820.77 360.03,-824.5 360.19,-817.5"/>
</g>
<!-- aws_subnet.db_a -->
<g id="node29" class="node">
<title>aws_subnet.db_a</title>
<polygon fill="none" stroke="black" points="328.5,-712 192.5,-712 192.5,-676 328.5,-676 328.5,-712"/>
<text text-anchor="middle" x="260.5" y="-690.3" font-family="sans-serif" font-size="14.00">aws_subnet.db_a</text>
</g>
<!-- aws_db_subnet_group.lab&#45;&gt;aws_subnet.db_a -->
<g id="edge7" class="edge">
<title>aws_db_subnet_group.lab&#45;&gt;aws_subnet.db_a</title>
<path fill="none" stroke="black" d="M522.98,-694C465.13,-694 392.67,-694 338.72,-694"/>
<polygon fill="black" stroke="black" points="338.52,-690.5 328.52,-694 338.52,-697.5 338.52,-690.5"/>
</g>
<!-- aws_subnet.db_c -->
<g id="node30" class="node">
<title>aws_subnet.db_c</title>
<polygon fill="none" stroke="black" points="328,-620 193,-620 193,-584 328,-584 328,-620"/>
<text text-anchor="middle" x="260.5" y="-598.3" font-family="sans-serif" font-size="14.00">aws_subnet.db_c</text>
</g>
<!-- aws_db_subnet_group.lab&#45;&gt;aws_subnet.db_c -->
<g id="edge8" class="edge">
<title>aws_db_subnet_group.lab&#45;&gt;aws_subnet.db_c</title>
<path fill="none" stroke="black" d="M549.6,-675.93C488.63,-660.29 400.61,-637.7 337.94,-621.62"/>
<polygon fill="black" stroke="black" points="338.66,-618.19 328.1,-619.09 336.92,-624.97 338.66,-618.19"/>
</g>
<!-- aws_eip.private_a -->
<g id="node4" class="node">
<title>aws_eip.private_a</title>
<polygon fill="none" stroke="black" points="330.5,-528 190.5,-528 190.5,-492 330.5,-492 330.5,-528"/>
<text text-anchor="middle" x="260.5" y="-506.3" font-family="sans-serif" font-size="14.00">aws_eip.private_a</text>
</g>
<!-- aws_eip.private_c -->
<g id="node5" class="node">
<title>aws_eip.private_c</title>
<polygon fill="none" stroke="black" points="330,-366 191,-366 191,-330 330,-330 330,-366"/>
<text text-anchor="middle" x="260.5" y="-344.3" font-family="sans-serif" font-size="14.00">aws_eip.private_c</text>
</g>
<!-- aws_internet_gateway.web -->
<g id="node6" class="node">
<title>aws_internet_gateway.web</title>
<polygon fill="none" stroke="black" points="360.5,-420 160.5,-420 160.5,-384 360.5,-384 360.5,-420"/>
<text text-anchor="middle" x="260.5" y="-398.3" font-family="sans-serif" font-size="14.00">aws_internet_gateway.web</text>
</g>
<!-- aws_vpc.web -->
<g id="node35" class="node">
<title>aws_vpc.web</title>
<polygon fill="none" stroke="black" points="108,-574 0,-574 0,-538 108,-538 108,-574"/>
<text text-anchor="middle" x="54" y="-552.3" font-family="sans-serif" font-size="14.00">aws_vpc.web</text>
</g>
<!-- aws_internet_gateway.web&#45;&gt;aws_vpc.web -->
<g id="edge9" class="edge">
<title>aws_internet_gateway.web&#45;&gt;aws_vpc.web</title>
<path fill="none" stroke="black" d="M160.35,-419.88C154.62,-422.52 149.12,-425.54 144,-429 107.33,-453.8 81.05,-499.13 66.94,-528.39"/>
<polygon fill="black" stroke="black" points="63.68,-527.1 62.63,-537.64 70.03,-530.06 63.68,-527.1"/>
</g>
<!-- aws_key_pair.my&#45;keypair -->
<g id="node7" class="node">
<title>aws_key_pair.my&#45;keypair</title>
<polygon fill="none" stroke="black" points="1089.5,-862 900.5,-862 900.5,-826 1089.5,-826 1089.5,-862"/>
<text text-anchor="middle" x="995" y="-840.3" font-family="sans-serif" font-size="14.00">aws_key_pair.my&#45;keypair</text>
</g>
<!-- aws_launch_template.web&#45;&gt;aws_db_instance.mariadb_multi_az -->
<g id="edge10" class="edge">
<title>aws_launch_template.web&#45;&gt;aws_db_instance.mariadb_multi_az</title>
<path fill="none" stroke="black" d="M1201.72,-798.12C1180.58,-797.29 1157.86,-796.39 1135.49,-795.51"/>
<polygon fill="black" stroke="black" points="1135.38,-792 1125.25,-795.1 1135.11,-798.99 1135.38,-792"/>
</g>
<!-- aws_launch_template.web&#45;&gt;aws_key_pair.my&#45;keypair -->
<g id="edge11" class="edge">
<title>aws_launch_template.web&#45;&gt;aws_key_pair.my&#45;keypair</title>
<path fill="none" stroke="black" d="M1201.72,-815.58C1169.1,-820.09 1132.69,-825.12 1099.67,-829.68"/>
<polygon fill="black" stroke="black" points="1098.97,-826.24 1089.55,-831.08 1099.93,-833.17 1098.97,-826.24"/>
</g>
<!-- aws_security_group.private -->
<g id="node27" class="node">
<title>aws_security_group.private</title>
<polygon fill="none" stroke="black" points="363.5,-909 157.5,-909 157.5,-873 363.5,-873 363.5,-909"/>
<text text-anchor="middle" x="260.5" y="-887.3" font-family="sans-serif" font-size="14.00">aws_security_group.private</text>
</g>
<!-- aws_launch_template.web&#45;&gt;aws_security_group.private -->
<g id="edge12" class="edge">
<title>aws_launch_template.web&#45;&gt;aws_security_group.private</title>
<path fill="none" stroke="black" d="M1261.46,-820.1C1182.5,-855.97 995.75,-934.74 829,-959 646.04,-985.62 593.79,-997.71 413,-959 372.63,-950.36 330.03,-930.11 300.31,-913.94"/>
<polygon fill="black" stroke="black" points="301.97,-910.86 291.52,-909.07 298.58,-916.98 301.97,-910.86"/>
</g>
<!-- aws_lb.alb -->
<g id="node9" class="node">
<title>aws_lb.alb</title>
<polygon fill="none" stroke="black" points="665.5,-236 576.5,-236 576.5,-200 665.5,-200 665.5,-236"/>
<text text-anchor="middle" x="621" y="-214.3" font-family="sans-serif" font-size="14.00">aws_lb.alb</text>
</g>
<!-- aws_security_group.lb_security -->
<g id="node26" class="node">
<title>aws_security_group.lb_security</title>
<polygon fill="none" stroke="black" points="377,-144 144,-144 144,-108 377,-108 377,-144"/>
<text text-anchor="middle" x="260.5" y="-122.3" font-family="sans-serif" font-size="14.00">aws_security_group.lb_security</text>
</g>
<!-- aws_lb.alb&#45;&gt;aws_security_group.lb_security -->
<g id="edge13" class="edge">
<title>aws_lb.alb&#45;&gt;aws_security_group.lb_security</title>
<path fill="none" stroke="black" d="M576.4,-206.81C518.3,-191.9 414.41,-165.24 341.91,-146.64"/>
<polygon fill="black" stroke="black" points="342.45,-143.16 331.9,-144.07 340.71,-149.94 342.45,-143.16"/>
</g>
<!-- aws_subnet.web_a -->
<g id="node33" class="node">
<title>aws_subnet.web_a</title>
<polygon fill="none" stroke="black" points="333.5,-474 187.5,-474 187.5,-438 333.5,-438 333.5,-474"/>
<text text-anchor="middle" x="260.5" y="-452.3" font-family="sans-serif" font-size="14.00">aws_subnet.web_a</text>
</g>
<!-- aws_lb.alb&#45;&gt;aws_subnet.web_a -->
<g id="edge14" class="edge">
<title>aws_lb.alb&#45;&gt;aws_subnet.web_a</title>
<path fill="none" stroke="black" d="M576.26,-219.63C529.24,-223.79 455.55,-237.7 413,-283 367.24,-331.71 424.54,-382.03 377,-429 367.66,-438.23 355.81,-444.53 343.28,-448.8"/>
<polygon fill="black" stroke="black" points="342.18,-445.47 333.59,-451.68 344.18,-452.18 342.18,-445.47"/>
</g>
<!-- aws_subnet.web_c -->
<g id="node34" class="node">
<title>aws_subnet.web_c</title>
<polygon fill="none" stroke="black" points="333.5,-297 187.5,-297 187.5,-261 333.5,-261 333.5,-297"/>
<text text-anchor="middle" x="260.5" y="-275.3" font-family="sans-serif" font-size="14.00">aws_subnet.web_c</text>
</g>
<!-- aws_lb.alb&#45;&gt;aws_subnet.web_c -->
<g id="edge15" class="edge">
<title>aws_lb.alb&#45;&gt;aws_subnet.web_c</title>
<path fill="none" stroke="black" d="M576.31,-224.29C534.37,-230.44 469.26,-240.27 413,-250 390.47,-253.9 366.12,-258.42 343.67,-262.72"/>
<polygon fill="black" stroke="black" points="343,-259.28 333.84,-264.61 344.32,-266.16 343,-259.28"/>
</g>
<!-- aws_lb_listener.lb_listener -->
<g id="node10" class="node">
<title>aws_lb_listener.lb_listener</title>
<polygon fill="none" stroke="black" points="1093,-296 897,-296 897,-260 1093,-260 1093,-296"/>
<text text-anchor="middle" x="995" y="-274.3" font-family="sans-serif" font-size="14.00">aws_lb_listener.lb_listener</text>
</g>
<!-- aws_lb_listener.lb_listener&#45;&gt;aws_lb.alb -->
<g id="edge16" class="edge">
<title>aws_lb_listener.lb_listener&#45;&gt;aws_lb.alb</title>
<path fill="none" stroke="black" d="M896.76,-261.25C874.5,-257.49 850.94,-253.56 829,-250 776.94,-241.56 717.42,-232.41 675.61,-226.07"/>
<polygon fill="black" stroke="black" points="676.06,-222.59 665.64,-224.56 675.01,-229.51 676.06,-222.59"/>
</g>
<!-- aws_lb_listener_rule.asg -->
<g id="node11" class="node">
<title>aws_lb_listener_rule.asg</title>
<polygon fill="none" stroke="black" points="1393.5,-379 1208.5,-379 1208.5,-343 1393.5,-343 1393.5,-379"/>
<text text-anchor="middle" x="1301" y="-357.3" font-family="sans-serif" font-size="14.00">aws_lb_listener_rule.asg</text>
</g>
<!-- aws_lb_listener_rule.asg&#45;&gt;aws_lb_listener.lb_listener -->
<g id="edge17" class="edge">
<title>aws_lb_listener_rule.asg&#45;&gt;aws_lb_listener.lb_listener</title>
<path fill="none" stroke="black" d="M1248.34,-342.92C1213.72,-331.18 1166.95,-316.07 1125,-305 1116.23,-302.68 1107.08,-300.44 1097.87,-298.3"/>
<polygon fill="black" stroke="black" points="1098.42,-294.83 1087.89,-296.01 1096.86,-301.65 1098.42,-294.83"/>
</g>
<!-- aws_lb_listener_rule.asg&#45;&gt;aws_lb_target_group.target -->
<g id="edge18" class="edge">
<title>aws_lb_listener_rule.asg&#45;&gt;aws_lb_target_group.target</title>
<path fill="none" stroke="black" d="M1276.17,-379.07C1243.72,-402.81 1183,-444.14 1125,-467 1119.2,-469.29 1113.18,-471.39 1107.04,-473.33"/>
<polygon fill="black" stroke="black" points="1105.9,-470.01 1097.32,-476.23 1107.91,-476.72 1105.9,-470.01"/>
</g>
<!-- aws_lb_target_group.target&#45;&gt;aws_vpc.web -->
<g id="edge19" class="edge">
<title>aws_lb_target_group.target&#45;&gt;aws_vpc.web</title>
<path fill="none" stroke="black" d="M896.57,-512.08C885.83,-514.76 875.13,-517.73 865,-521 848.34,-526.38 846.08,-533.16 829,-537 694.43,-567.29 278.13,-561.22 118.34,-557.63"/>
<polygon fill="black" stroke="black" points="118.27,-554.12 108.19,-557.39 118.11,-561.12 118.27,-554.12"/>
</g>
<!-- aws_nat_gateway.private_a -->
<g id="node13" class="node">
<title>aws_nat_gateway.private_a</title>
<polygon fill="none" stroke="black" points="723,-528 519,-528 519,-492 723,-492 723,-528"/>
<text text-anchor="middle" x="621" y="-506.3" font-family="sans-serif" font-size="14.00">aws_nat_gateway.private_a</text>
</g>
<!-- aws_nat_gateway.private_a&#45;&gt;aws_eip.private_a -->
<g id="edge20" class="edge">
<title>aws_nat_gateway.private_a&#45;&gt;aws_eip.private_a</title>
<path fill="none" stroke="black" d="M518.71,-510C462.41,-510 393.38,-510 341.01,-510"/>
<polygon fill="black" stroke="black" points="340.77,-506.5 330.77,-510 340.77,-513.5 340.77,-506.5"/>
</g>
<!-- aws_nat_gateway.private_a&#45;&gt;aws_internet_gateway.web -->
<g id="edge21" class="edge">
<title>aws_nat_gateway.private_a&#45;&gt;aws_internet_gateway.web</title>
<path fill="none" stroke="black" d="M555.94,-491.94C514.72,-479.81 460.22,-462.84 413,-445 396.62,-438.81 393.6,-434.57 377,-429 370.51,-426.82 363.75,-424.75 356.91,-422.8"/>
<polygon fill="black" stroke="black" points="357.42,-419.31 346.85,-420.03 355.56,-426.06 357.42,-419.31"/>
</g>
<!-- aws_nat_gateway.private_a&#45;&gt;aws_subnet.web_a -->
<g id="edge22" class="edge">
<title>aws_nat_gateway.private_a&#45;&gt;aws_subnet.web_a</title>
<path fill="none" stroke="black" d="M518.71,-494.74C463.38,-486.41 395.76,-476.22 343.73,-468.39"/>
<polygon fill="black" stroke="black" points="343.95,-464.88 333.55,-466.85 342.91,-471.8 343.95,-464.88"/>
</g>
<!-- aws_nat_gateway.private_c -->
<g id="node14" class="node">
<title>aws_nat_gateway.private_c</title>
<polygon fill="none" stroke="black" points="722.5,-382 519.5,-382 519.5,-346 722.5,-346 722.5,-382"/>
<text text-anchor="middle" x="621" y="-360.3" font-family="sans-serif" font-size="14.00">aws_nat_gateway.private_c</text>
</g>
<!-- aws_nat_gateway.private_c&#45;&gt;aws_eip.private_c -->
<g id="edge23" class="edge">
<title>aws_nat_gateway.private_c&#45;&gt;aws_eip.private_c</title>
<path fill="none" stroke="black" d="M519.18,-359.5C462.59,-356.97 393,-353.87 340.41,-351.52"/>
<polygon fill="black" stroke="black" points="340.27,-348.01 330.12,-351.06 339.96,-355.01 340.27,-348.01"/>
</g>
<!-- aws_nat_gateway.private_c&#45;&gt;aws_internet_gateway.web -->
<g id="edge24" class="edge">
<title>aws_nat_gateway.private_c&#45;&gt;aws_internet_gateway.web</title>
<path fill="none" stroke="black" d="M519.18,-374.69C472.88,-379.59 417.87,-385.43 370.6,-390.44"/>
<polygon fill="black" stroke="black" points="370.21,-386.96 360.63,-391.49 370.94,-393.92 370.21,-386.96"/>
</g>
<!-- aws_nat_gateway.private_c&#45;&gt;aws_subnet.web_c -->
<g id="edge25" class="edge">
<title>aws_nat_gateway.private_c&#45;&gt;aws_subnet.web_c</title>
<path fill="none" stroke="black" d="M519.33,-356.76C485.15,-352.75 447.02,-346.56 413,-337 396.14,-332.26 393.24,-327.55 377,-321 359.64,-313.99 340.61,-306.86 323.09,-300.5"/>
<polygon fill="black" stroke="black" points="324.13,-297.16 313.54,-297.06 321.76,-303.74 324.13,-297.16"/>
</g>
<!-- aws_route_table.db_a -->
<g id="node15" class="node">
<title>aws_route_table.db_a</title>
<polygon fill="none" stroke="black" points="1077.5,-712 912.5,-712 912.5,-676 1077.5,-676 1077.5,-712"/>
<text text-anchor="middle" x="995" y="-690.3" font-family="sans-serif" font-size="14.00">aws_route_table.db_a</text>
</g>
<!-- aws_route_table.db_a&#45;&gt;aws_nat_gateway.private_a -->
<g id="edge26" class="edge">
<title>aws_route_table.db_a&#45;&gt;aws_nat_gateway.private_a</title>
<path fill="none" stroke="black" d="M912.46,-681.67C896.41,-677.93 879.92,-673.13 865,-667 781.64,-632.74 695.76,-569.37 651.84,-534.54"/>
<polygon fill="black" stroke="black" points="653.88,-531.68 643.88,-528.17 649.5,-537.15 653.88,-531.68"/>
</g>
<!-- aws_route_table.db_c -->
<g id="node16" class="node">
<title>aws_route_table.db_c</title>
<polygon fill="none" stroke="black" points="1077,-404 913,-404 913,-368 1077,-368 1077,-404"/>
<text text-anchor="middle" x="995" y="-382.3" font-family="sans-serif" font-size="14.00">aws_route_table.db_c</text>
</g>
<!-- aws_route_table.db_c&#45;&gt;aws_nat_gateway.private_c -->
<g id="edge27" class="edge">
<title>aws_route_table.db_c&#45;&gt;aws_nat_gateway.private_c</title>
<path fill="none" stroke="black" d="M912.82,-381.2C860.08,-378.08 790.65,-373.97 732.86,-370.56"/>
<polygon fill="black" stroke="black" points="732.77,-367.04 722.58,-369.95 732.36,-374.03 732.77,-367.04"/>
</g>
<!-- aws_route_table.private_a -->
<g id="node17" class="node">
<title>aws_route_table.private_a</title>
<polygon fill="none" stroke="black" points="1093,-566 897,-566 897,-530 1093,-530 1093,-566"/>
<text text-anchor="middle" x="995" y="-544.3" font-family="sans-serif" font-size="14.00">aws_route_table.private_a</text>
</g>
<!-- aws_route_table.private_a&#45;&gt;aws_nat_gateway.private_a -->
<g id="edge28" class="edge">
<title>aws_route_table.private_a&#45;&gt;aws_nat_gateway.private_a</title>
<path fill="none" stroke="black" d="M896.75,-538.07C846.7,-532.95 785.45,-526.7 733.49,-521.39"/>
<polygon fill="black" stroke="black" points="733.53,-517.87 723.23,-520.34 732.82,-524.84 733.53,-517.87"/>
</g>
<!-- aws_route_table.private_c -->
<g id="node18" class="node">
<title>aws_route_table.private_c</title>
<polygon fill="none" stroke="black" points="1092.5,-242 897.5,-242 897.5,-206 1092.5,-206 1092.5,-242"/>
<text text-anchor="middle" x="995" y="-220.3" font-family="sans-serif" font-size="14.00">aws_route_table.private_c</text>
</g>
<!-- aws_route_table.private_c&#45;&gt;aws_nat_gateway.private_c -->
<g id="edge29" class="edge">
<title>aws_route_table.private_c&#45;&gt;aws_nat_gateway.private_c</title>
<path fill="none" stroke="black" d="M897.26,-233.32C885.57,-237.49 874.44,-243.2 865,-251 833.05,-277.39 861.94,-311.86 829,-337 801.85,-357.73 766.63,-366.85 732.97,-370.11"/>
<polygon fill="black" stroke="black" points="732.27,-366.65 722.58,-370.94 732.83,-373.63 732.27,-366.65"/>
</g>
<!-- aws_route_table.web -->
<g id="node19" class="node">
<title>aws_route_table.web</title>
<polygon fill="none" stroke="black" points="701.5,-436 540.5,-436 540.5,-400 701.5,-400 701.5,-436"/>
<text text-anchor="middle" x="621" y="-414.3" font-family="sans-serif" font-size="14.00">aws_route_table.web</text>
</g>
<!-- aws_route_table.web&#45;&gt;aws_internet_gateway.web -->
<g id="edge30" class="edge">
<title>aws_route_table.web&#45;&gt;aws_internet_gateway.web</title>
<path fill="none" stroke="black" d="M540.44,-414.45C490.53,-412.22 425.5,-409.32 370.79,-406.88"/>
<polygon fill="black" stroke="black" points="370.85,-403.38 360.7,-406.43 370.53,-410.37 370.85,-403.38"/>
</g>
<!-- aws_route_table_association.db_a -->
<g id="node20" class="node">
<title>aws_route_table_association.db_a</title>
<polygon fill="none" stroke="black" points="1425.5,-745 1176.5,-745 1176.5,-709 1425.5,-709 1425.5,-745"/>
<text text-anchor="middle" x="1301" y="-723.3" font-family="sans-serif" font-size="14.00">aws_route_table_association.db_a</text>
</g>
<!-- aws_route_table_association.db_a&#45;&gt;aws_route_table.db_a -->
<g id="edge31" class="edge">
<title>aws_route_table_association.db_a&#45;&gt;aws_route_table.db_a</title>
<path fill="none" stroke="black" d="M1176.35,-713.58C1146.78,-710.37 1115.72,-707 1087.87,-703.97"/>
<polygon fill="black" stroke="black" points="1088.09,-700.48 1077.77,-702.88 1087.33,-707.43 1088.09,-700.48"/>
</g>
<!-- aws_route_table_association.db_a&#45;&gt;aws_subnet.db_a -->
<g id="edge32" class="edge">
<title>aws_route_table_association.db_a&#45;&gt;aws_subnet.db_a</title>
<path fill="none" stroke="black" d="M1176.27,-732.76C1004.55,-739.25 684.43,-745.92 413,-721 388.67,-718.77 362.4,-714.68 338.67,-710.36"/>
<polygon fill="black" stroke="black" points="339.14,-706.89 328.67,-708.49 337.86,-713.77 339.14,-706.89"/>
</g>
<!-- aws_route_table_association.db_c -->
<g id="node21" class="node">
<title>aws_route_table_association.db_c</title>
<polygon fill="none" stroke="black" points="1425,-558 1177,-558 1177,-522 1425,-522 1425,-558"/>
<text text-anchor="middle" x="1301" y="-536.3" font-family="sans-serif" font-size="14.00">aws_route_table_association.db_c</text>
</g>
<!-- aws_route_table_association.db_c&#45;&gt;aws_route_table.db_c -->
<g id="edge33" class="edge">
<title>aws_route_table_association.db_c&#45;&gt;aws_route_table.db_c</title>
<path fill="none" stroke="black" d="M1281,-521.93C1250.59,-494.06 1187.98,-440.9 1125,-413 1113.08,-407.72 1100.08,-403.45 1087.06,-400.01"/>
<polygon fill="black" stroke="black" points="1087.67,-396.55 1077.12,-397.53 1085.98,-403.35 1087.67,-396.55"/>
</g>
<!-- aws_route_table_association.db_c&#45;&gt;aws_subnet.db_c -->
<g id="edge34" class="edge">
<title>aws_route_table_association.db_c&#45;&gt;aws_subnet.db_c</title>
<path fill="none" stroke="black" d="M1205.35,-558.03C1190.49,-560.96 1175.32,-564.02 1161,-567 1144.95,-570.34 1141.26,-572.96 1125,-575 836.42,-611.25 489.56,-608.07 338.3,-604.4"/>
<polygon fill="black" stroke="black" points="338.27,-600.9 328.19,-604.15 338.1,-607.9 338.27,-600.9"/>
</g>
<!-- aws_route_table_association.private_a -->
<g id="node22" class="node">
<title>aws_route_table_association.private_a</title>
<polygon fill="none" stroke="black" points="1441,-612 1161,-612 1161,-576 1441,-576 1441,-612"/>
<text text-anchor="middle" x="1301" y="-590.3" font-family="sans-serif" font-size="14.00">aws_route_table_association.private_a</text>
</g>
<!-- aws_route_table_association.private_a&#45;&gt;aws_route_table.private_a -->
<g id="edge35" class="edge">
<title>aws_route_table_association.private_a&#45;&gt;aws_route_table.private_a</title>
<path fill="none" stroke="black" d="M1180.72,-575.95C1155.28,-572.1 1128.56,-568.06 1103.59,-564.28"/>
<polygon fill="black" stroke="black" points="1103.79,-560.77 1093.38,-562.74 1102.74,-567.69 1103.79,-560.77"/>
</g>
<!-- aws_route_table_association.private_a&#45;&gt;aws_subnet.private_a -->
<g id="edge36" class="edge">
<title>aws_route_table_association.private_a&#45;&gt;aws_subnet.private_a</title>
<path fill="none" stroke="black" d="M1180.72,-612.05C1150.22,-616.66 1117.87,-621.56 1088.91,-625.94"/>
<polygon fill="black" stroke="black" points="1088.18,-622.51 1078.82,-627.47 1089.23,-629.43 1088.18,-622.51"/>
</g>
<!-- aws_route_table_association.private_c -->
<g id="node23" class="node">
<title>aws_route_table_association.private_c</title>
<polygon fill="none" stroke="black" points="1440.5,-240 1161.5,-240 1161.5,-204 1440.5,-204 1440.5,-240"/>
<text text-anchor="middle" x="1301" y="-218.3" font-family="sans-serif" font-size="14.00">aws_route_table_association.private_c</text>
</g>
<!-- aws_route_table_association.private_c&#45;&gt;aws_route_table.private_c -->
<g id="edge37" class="edge">
<title>aws_route_table_association.private_c&#45;&gt;aws_route_table.private_c</title>
<path fill="none" stroke="black" d="M1161.34,-222.91C1141.7,-223.04 1121.75,-223.17 1102.84,-223.3"/>
<polygon fill="black" stroke="black" points="1102.72,-219.8 1092.74,-223.36 1102.77,-226.8 1102.72,-219.8"/>
</g>
<!-- aws_route_table_association.private_c&#45;&gt;aws_subnet.private_c -->
<g id="edge38" class="edge">
<title>aws_route_table_association.private_c&#45;&gt;aws_subnet.private_c</title>
<path fill="none" stroke="black" d="M1194.53,-203.96C1160.03,-198.06 1121.99,-191.55 1088.51,-185.82"/>
<polygon fill="black" stroke="black" points="1088.73,-182.31 1078.28,-184.07 1087.55,-189.21 1088.73,-182.31"/>
</g>
<!-- aws_route_table_association.web_a -->
<g id="node24" class="node">
<title>aws_route_table_association.web_a</title>
<polygon fill="none" stroke="black" points="1125,-458 865,-458 865,-422 1125,-422 1125,-458"/>
<text text-anchor="middle" x="995" y="-436.3" font-family="sans-serif" font-size="14.00">aws_route_table_association.web_a</text>
</g>
<!-- aws_route_table_association.web_a&#45;&gt;aws_route_table.web -->
<g id="edge39" class="edge">
<title>aws_route_table_association.web_a&#45;&gt;aws_route_table.web</title>
<path fill="none" stroke="black" d="M864.94,-432.37C814.41,-429.38 757.67,-426.02 711.75,-423.31"/>
<polygon fill="black" stroke="black" points="711.71,-419.8 701.52,-422.7 711.3,-426.79 711.71,-419.8"/>
</g>
<!-- aws_route_table_association.web_a&#45;&gt;aws_subnet.web_a -->
<g id="edge40" class="edge">
<title>aws_route_table_association.web_a&#45;&gt;aws_subnet.web_a</title>
<path fill="none" stroke="black" d="M864.75,-444.05C852.66,-444.39 840.6,-444.71 829,-445 656.33,-449.29 454.07,-452.86 343.69,-454.69"/>
<polygon fill="black" stroke="black" points="343.56,-451.19 333.62,-454.85 343.68,-458.19 343.56,-451.19"/>
</g>
<!-- aws_route_table_association.web_c -->
<g id="node25" class="node">
<title>aws_route_table_association.web_c</title>
<polygon fill="none" stroke="black" points="1124.5,-350 865.5,-350 865.5,-314 1124.5,-314 1124.5,-350"/>
<text text-anchor="middle" x="995" y="-328.3" font-family="sans-serif" font-size="14.00">aws_route_table_association.web_c</text>
</g>
<!-- aws_route_table_association.web_c&#45;&gt;aws_route_table.web -->
<g id="edge41" class="edge">
<title>aws_route_table_association.web_c&#45;&gt;aws_route_table.web</title>
<path fill="none" stroke="black" d="M886.23,-350.04C878.89,-352.63 871.74,-355.6 865,-359 845.88,-368.63 848.47,-382.11 829,-391 792.84,-407.51 749.66,-414.82 712.12,-417.8"/>
<polygon fill="black" stroke="black" points="711.42,-414.34 701.69,-418.52 711.91,-421.32 711.42,-414.34"/>
</g>
<!-- aws_route_table_association.web_c&#45;&gt;aws_subnet.web_c -->
<g id="edge42" class="edge">
<title>aws_route_table_association.web_c&#45;&gt;aws_subnet.web_c</title>
<path fill="none" stroke="black" d="M891.64,-313.98C882.51,-311.35 873.51,-308.37 865,-305 847.57,-298.09 847.03,-288.14 829,-283 662.01,-235.38 455.96,-251.43 343.79,-266.06"/>
<polygon fill="black" stroke="black" points="343.02,-262.63 333.57,-267.42 343.94,-269.57 343.02,-262.63"/>
</g>
<!-- aws_security_group.lb_security&#45;&gt;aws_vpc.web -->
<g id="edge43" class="edge">
<title>aws_security_group.lb_security&#45;&gt;aws_vpc.web</title>
<path fill="none" stroke="black" d="M161.92,-144.1C155.32,-147.91 149.23,-152.5 144,-158 92.64,-212.01 65.56,-446.4 57.56,-527.92"/>
<polygon fill="black" stroke="black" points="54.07,-527.66 56.6,-537.95 61.04,-528.33 54.07,-527.66"/>
</g>
<!-- aws_security_group.private&#45;&gt;aws_vpc.web -->
<g id="edge44" class="edge">
<title>aws_security_group.private&#45;&gt;aws_vpc.web</title>
<path fill="none" stroke="black" d="M185.59,-872.9C170.21,-866.24 155.27,-857.21 144,-845 74.43,-769.61 59.21,-640.93 55.91,-584.24"/>
<polygon fill="black" stroke="black" points="59.4,-584.02 55.4,-574.21 52.41,-584.37 59.4,-584.02"/>
</g>
<!-- aws_security_group.rds&#45;&gt;aws_vpc.web -->
<g id="edge45" class="edge">
<title>aws_security_group.rds&#45;&gt;aws_vpc.web</title>
<path fill="none" stroke="black" d="M232.21,-799.66C207.04,-781.77 169.8,-752.67 144,-721 108.65,-677.59 80.62,-618.02 66.04,-583.6"/>
<polygon fill="black" stroke="black" points="69.19,-582.08 62.12,-574.19 62.73,-584.77 69.19,-582.08"/>
</g>
<!-- aws_subnet.db_a&#45;&gt;aws_vpc.web -->
<g id="edge46" class="edge">
<title>aws_subnet.db_a&#45;&gt;aws_vpc.web</title>
<path fill="none" stroke="black" d="M192.45,-682.7C175.78,-677.99 158.53,-671.34 144,-662 112.63,-641.84 86.59,-607.17 70.95,-582.99"/>
<polygon fill="black" stroke="black" points="73.76,-580.89 65.47,-574.29 67.83,-584.62 73.76,-580.89"/>
</g>
<!-- aws_subnet.db_c&#45;&gt;aws_vpc.web -->
<g id="edge47" class="edge">
<title>aws_subnet.db_c&#45;&gt;aws_vpc.web</title>
<path fill="none" stroke="black" d="M192.82,-587C168.86,-581.61 141.91,-575.55 118.24,-570.23"/>
<polygon fill="black" stroke="black" points="118.84,-566.77 108.32,-567.99 117.31,-573.6 118.84,-566.77"/>
</g>
<!-- aws_subnet.private_a&#45;&gt;aws_vpc.web -->
<g id="edge48" class="edge">
<title>aws_subnet.private_a&#45;&gt;aws_vpc.web</title>
<path fill="none" stroke="black" d="M911.41,-645.8C726.21,-657.71 283.07,-679.76 144,-629 117.79,-619.43 93.7,-598.59 77.21,-581.61"/>
<polygon fill="black" stroke="black" points="79.58,-579.03 70.19,-574.14 74.48,-583.82 79.58,-579.03"/>
</g>
<!-- aws_subnet.private_c&#45;&gt;aws_vpc.web -->
<g id="edge49" class="edge">
<title>aws_subnet.private_c&#45;&gt;aws_vpc.web</title>
<path fill="none" stroke="black" d="M911.77,-165.75C720.41,-157.7 253.24,-149.32 144,-252 64.79,-326.46 54.84,-467.21 54.42,-527.46"/>
<polygon fill="black" stroke="black" points="50.92,-527.75 54.44,-537.74 57.92,-527.74 50.92,-527.75"/>
</g>
<!-- aws_subnet.web_a&#45;&gt;aws_vpc.web -->
<g id="edge50" class="edge">
<title>aws_subnet.web_a&#45;&gt;aws_vpc.web</title>
<path fill="none" stroke="black" d="M187.49,-467.47C172.67,-471.3 157.48,-476.35 144,-483 119.6,-495.04 95.98,-514.92 79.21,-530.9"/>
<polygon fill="black" stroke="black" points="76.73,-528.43 72.01,-537.92 81.61,-533.44 76.73,-528.43"/>
</g>
<!-- aws_subnet.web_c&#45;&gt;aws_vpc.web -->
<g id="edge51" class="edge">
<title>aws_subnet.web_c&#45;&gt;aws_vpc.web</title>
<path fill="none" stroke="black" d="M187.42,-294.49C171.59,-300.63 156,-309.16 144,-321 85.4,-378.83 64.83,-479.11 58.07,-527.83"/>
<polygon fill="black" stroke="black" points="54.57,-527.59 56.76,-537.95 61.51,-528.48 54.57,-527.59"/>
</g>
<!-- aws_vpc_security_group_egress_rule.egress&#45;lb&#45;security -->
<g id="node36" class="node">
<title>aws_vpc_security_group_egress_rule.egress&#45;lb&#45;security</title>
<polygon fill="none" stroke="black" points="821,-90 421,-90 421,-54 821,-54 821,-90"/>
<text text-anchor="middle" x="621" y="-68.3" font-family="sans-serif" font-size="14.00">aws_vpc_security_group_egress_rule.egress&#45;lb&#45;security</text>
</g>
<!-- aws_vpc_security_group_egress_rule.egress&#45;lb&#45;security&#45;&gt;aws_security_group.lb_security -->
<g id="edge52" class="edge">
<title>aws_vpc_security_group_egress_rule.egress&#45;lb&#45;security&#45;&gt;aws_security_group.lb_security</title>
<path fill="none" stroke="black" d="M475.11,-90.02C454.25,-92.87 433.06,-95.91 413,-99 398.73,-101.2 383.74,-103.67 368.96,-106.21"/>
<polygon fill="black" stroke="black" points="368.04,-102.82 358.78,-107.97 369.23,-109.72 368.04,-102.82"/>
</g>
<!-- aws_vpc_security_group_egress_rule.egress&#45;web -->
<g id="node37" class="node">
<title>aws_vpc_security_group_egress_rule.egress&#45;web</title>
<polygon fill="none" stroke="black" points="798.5,-950 443.5,-950 443.5,-914 798.5,-914 798.5,-950"/>
<text text-anchor="middle" x="621" y="-928.3" font-family="sans-serif" font-size="14.00">aws_vpc_security_group_egress_rule.egress&#45;web</text>
</g>
<!-- aws_vpc_security_group_egress_rule.egress&#45;web&#45;&gt;aws_security_group.private -->
<g id="edge53" class="edge">
<title>aws_vpc_security_group_egress_rule.egress&#45;web&#45;&gt;aws_security_group.private</title>
<path fill="none" stroke="black" d="M462.5,-913.99C432.61,-910.57 401.9,-907.06 373.77,-903.84"/>
<polygon fill="black" stroke="black" points="373.86,-900.33 363.53,-902.67 373.07,-907.28 373.86,-900.33"/>
</g>
<!-- aws_vpc_security_group_egress_rule.rds_egress -->
<g id="node38" class="node">
<title>aws_vpc_security_group_egress_rule.rds_egress</title>
<polygon fill="none" stroke="black" points="796,-804 446,-804 446,-768 796,-768 796,-804"/>
<text text-anchor="middle" x="621" y="-782.3" font-family="sans-serif" font-size="14.00">aws_vpc_security_group_egress_rule.rds_egress</text>
</g>
<!-- aws_vpc_security_group_egress_rule.rds_egress&#45;&gt;aws_security_group.rds -->
<g id="edge54" class="edge">
<title>aws_vpc_security_group_egress_rule.rds_egress&#45;&gt;aws_security_group.rds</title>
<path fill="none" stroke="black" d="M445.74,-801.55C416.34,-804.18 386.77,-806.82 360.18,-809.19"/>
<polygon fill="black" stroke="black" points="359.79,-805.71 350.14,-810.09 360.41,-812.68 359.79,-805.71"/>
</g>
<!-- aws_vpc_security_group_ingress_rule.http&#45;lb&#45;security -->
<g id="node39" class="node">
<title>aws_vpc_security_group_ingress_rule.http&#45;lb&#45;security</title>
<polygon fill="none" stroke="black" points="814.5,-36 427.5,-36 427.5,0 814.5,0 814.5,-36"/>
<text text-anchor="middle" x="621" y="-14.3" font-family="sans-serif" font-size="14.00">aws_vpc_security_group_ingress_rule.http&#45;lb&#45;security</text>
</g>
<!-- aws_vpc_security_group_ingress_rule.http&#45;lb&#45;security&#45;&gt;aws_security_group.lb_security -->
<g id="edge55" class="edge">
<title>aws_vpc_security_group_ingress_rule.http&#45;lb&#45;security&#45;&gt;aws_security_group.lb_security</title>
<path fill="none" stroke="black" d="M445.89,-36.02C434.66,-38.62 423.61,-41.6 413,-45 370.79,-58.54 326.53,-83.66 296.82,-102.35"/>
<polygon fill="black" stroke="black" points="294.64,-99.59 288.09,-107.92 298.4,-105.49 294.64,-99.59"/>
</g>
<!-- aws_vpc_security_group_ingress_rule.http&#45;web -->
<g id="node40" class="node">
<title>aws_vpc_security_group_ingress_rule.http&#45;web</title>
<polygon fill="none" stroke="black" points="792,-328 450,-328 450,-292 792,-292 792,-328"/>
<text text-anchor="middle" x="621" y="-306.3" font-family="sans-serif" font-size="14.00">aws_vpc_security_group_ingress_rule.http&#45;web</text>
</g>
<!-- aws_vpc_security_group_ingress_rule.http&#45;web&#45;&gt;aws_security_group.lb_security -->
<g id="edge56" class="edge">
<title>aws_vpc_security_group_ingress_rule.http&#45;web&#45;&gt;aws_security_group.lb_security</title>
<path fill="none" stroke="black" d="M539.17,-291.9C499.77,-281.28 452.49,-265.81 413,-245 364.59,-219.49 316.17,-177.98 287.54,-151.34"/>
<polygon fill="black" stroke="black" points="289.68,-148.55 280,-144.25 284.88,-153.65 289.68,-148.55"/>
</g>
<!-- aws_vpc_security_group_ingress_rule.http&#45;web&#45;&gt;aws_security_group.private -->
<g id="edge57" class="edge">
<title>aws_vpc_security_group_ingress_rule.http&#45;web&#45;&gt;aws_security_group.private</title>
<path fill="none" stroke="black" d="M449.78,-311.84C436.03,-317.76 423.44,-325.92 413,-337 335.37,-419.35 443.79,-753.64 377,-845 369.98,-854.6 360.64,-862.19 350.3,-868.21"/>
<polygon fill="black" stroke="black" points="348.62,-865.14 341.4,-872.89 351.88,-871.33 348.62,-865.14"/>
</g>
<!-- aws_vpc_security_group_ingress_rule.mysql_from_private -->
<g id="node41" class="node">
<title>aws_vpc_security_group_ingress_rule.mysql_from_private</title>
<polygon fill="none" stroke="black" points="829,-896 413,-896 413,-860 829,-860 829,-896"/>
<text text-anchor="middle" x="621" y="-874.3" font-family="sans-serif" font-size="14.00">aws_vpc_security_group_ingress_rule.mysql_from_private</text>
</g>
<!-- aws_vpc_security_group_ingress_rule.mysql_from_private&#45;&gt;aws_security_group.private -->
<g id="edge58" class="edge">
<title>aws_vpc_security_group_ingress_rule.mysql_from_private&#45;&gt;aws_security_group.private</title>
<path fill="none" stroke="black" d="M412.76,-885.52C399.55,-885.99 386.56,-886.47 374.07,-886.92"/>
<polygon fill="black" stroke="black" points="373.57,-883.43 363.7,-887.29 373.82,-890.43 373.57,-883.43"/>
</g>
<!-- aws_vpc_security_group_ingress_rule.mysql_from_private&#45;&gt;aws_security_group.rds -->
<g id="edge59" class="edge">
<title>aws_vpc_security_group_ingress_rule.mysql_from_private&#45;&gt;aws_security_group.rds</title>
<path fill="none" stroke="black" d="M499.5,-859.98C471.1,-855.57 440.96,-850.74 413,-846 396.03,-843.12 378.01,-839.92 360.55,-836.74"/>
<polygon fill="black" stroke="black" points="360.81,-833.23 350.34,-834.87 359.55,-840.11 360.81,-833.23"/>
</g>
<!-- aws_vpc_security_group_ingress_rule.ssh&#45;lb&#45;security -->
<g id="node42" class="node">
<title>aws_vpc_security_group_ingress_rule.ssh&#45;lb&#45;security</title>
<polygon fill="none" stroke="black" points="812.5,-144 429.5,-144 429.5,-108 812.5,-108 812.5,-144"/>
<text text-anchor="middle" x="621" y="-122.3" font-family="sans-serif" font-size="14.00">aws_vpc_security_group_ingress_rule.ssh&#45;lb&#45;security</text>
</g>
<!-- aws_vpc_security_group_ingress_rule.ssh&#45;lb&#45;security&#45;&gt;aws_security_group.lb_security -->
<g id="edge60" class="edge">
<title>aws_vpc_security_group_ingress_rule.ssh&#45;lb&#45;security&#45;&gt;aws_security_group.lb_security</title>
<path fill="none" stroke="black" d="M429.47,-126C415.33,-126 401.28,-126 387.68,-126"/>
<polygon fill="black" stroke="black" points="387.38,-122.5 377.38,-126 387.38,-129.5 387.38,-122.5"/>
</g>
<!-- aws_vpc_security_group_ingress_rule.ssh&#45;web -->
<g id="node43" class="node">
<title>aws_vpc_security_group_ingress_rule.ssh&#45;web</title>
<polygon fill="none" stroke="black" points="790,-1042 452,-1042 452,-1006 790,-1006 790,-1042"/>
<text text-anchor="middle" x="621" y="-1020.3" font-family="sans-serif" font-size="14.00">aws_vpc_security_group_ingress_rule.ssh&#45;web</text>
</g>
<!-- aws_vpc_security_group_ingress_rule.ssh&#45;web&#45;&gt;aws_security_group.private -->
<g id="edge61" class="edge">
<title>aws_vpc_security_group_ingress_rule.ssh&#45;web&#45;&gt;aws_security_group.private</title>
<path fill="none" stroke="black" d="M458,-1005.97C442.55,-1002.17 427.32,-997.57 413,-992 366.34,-973.86 319.43,-939.52 290.44,-915.95"/>
<polygon fill="black" stroke="black" points="292.33,-912.98 282.39,-909.32 287.88,-918.38 292.33,-912.98"/>
</g>
</g>
</svg>
