<?xml version="1.0" encoding="UTF-8" standalone="no"?>
<!DOCTYPE svg PUBLIC "-//W3C//DTD SVG 1.1//EN"
 "http://www.w3.org/Graphics/SVG/1.1/DTD/svg11.dtd">
<!-- Generated by graphviz version 2.43.0 (0)
 -->
<!-- Title: G Pages: 1 -->
<svg width="1679pt" height="1123pt"
 viewBox="0.00 0.00 1679.00 1123.29" xmlns="http://www.w3.org/2000/svg" xmlns:xlink="http://www.w3.org/1999/xlink">
<g id="graph0" class="graph" transform="scale(1 1) rotate(0) translate(4 1119.29)">
<title>G</title>
<polygon fill="white" stroke="transparent" points="-4,4 -4,-1119.29 1675,-1119.29 1675,4 -4,4"/>
<!-- aws_autoscaling_group.web -->
<g id="node1" class="node">
<title>aws_autoscaling_group.web</title>
<polygon fill="none" stroke="black" points="1671,-948.51 1461,-948.51 1461,-912.51 1671,-912.51 1671,-948.51"/>
<text text-anchor="middle" x="1566" y="-926.81" font-family="sans-serif" font-size="14.00">aws_autoscaling_group.web</text>
</g>
<!-- aws_launch_template.web -->
<g id="node8" class="node">
<title>aws_launch_template.web</title>
<polygon fill="none" stroke="black" points="1392,-925.51 1194,-925.51 1194,-889.51 1392,-889.51 1392,-925.51"/>
<text text-anchor="middle" x="1293" y="-903.81" font-family="sans-serif" font-size="14.00">aws_launch_template.web</text>
</g>
<!-- aws_autoscaling_group.web&#45;&gt;aws_launch_template.web -->
<g id="edge1" class="edge">
<title>aws_autoscaling_group.web&#45;&gt;aws_launch_template.web</title>
<path fill="none" stroke="black" d="M1461,-921.69C1441.81,-920.06 1421.72,-918.35 1402.4,-916.71"/>
<polygon fill="black" stroke="black" points="1402.64,-913.22 1392.38,-915.86 1402.04,-920.2 1402.64,-913.22"/>
</g>
<!-- aws_lb_target_group.target -->
<g id="node12" class="node">
<title>aws_lb_target_group.target</title>
<polygon fill="none" stroke="black" points="1097,-971.51 893,-971.51 893,-935.51 1097,-935.51 1097,-971.51"/>
<text text-anchor="middle" x="995" y="-949.81" font-family="sans-serif" font-size="14.00">aws_lb_target_group.target</text>
</g>
<!-- aws_autoscaling_group.web&#45;&gt;aws_lb_target_group.target -->
<g id="edge2" class="edge">
<title>aws_autoscaling_group.web&#45;&gt;aws_lb_target_group.target</title>
<path fill="none" stroke="black" d="M1460.97,-934.72C1360.88,-938.77 1210.04,-944.86 1107.51,-949.01"/>
<polygon fill="black" stroke="black" points="1107.28,-945.51 1097.43,-949.41 1107.57,-952.51 1107.28,-945.51"/>
</g>
<!-- aws_subnet.private_a -->
<g id="node29" class="node">
<title>aws_subnet.private_a</title>
<polygon fill="none" stroke="black" points="1078.5,-1079.51 911.5,-1079.51 911.5,-1043.51 1078.5,-1043.51 1078.5,-1079.51"/>
<text text-anchor="middle" x="995" y="-1057.81" font-family="sans-serif" font-size="14.00">aws_subnet.private_a</text>
</g>
<!-- aws_autoscaling_group.web&#45;&gt;aws_subnet.private_a -->
<g id="edge3" class="edge">
<title>aws_autoscaling_group.web&#45;&gt;aws_subnet.private_a</title>
<path fill="none" stroke="black" d="M1491.17,-948.58C1403.87,-969.8 1254.1,-1005.75 1125,-1034.51 1113.19,-1037.14 1100.76,-1039.84 1088.47,-1042.46"/>
<polygon fill="black" stroke="black" points="1087.7,-1039.05 1078.65,-1044.55 1089.16,-1045.89 1087.7,-1039.05"/>
</g>
<!-- aws_subnet.private_c -->
<g id="node30" class="node">
<title>aws_subnet.private_c</title>
<polygon fill="none" stroke="black" points="1078,-62.51 912,-62.51 912,-26.51 1078,-26.51 1078,-62.51"/>
<text text-anchor="middle" x="995" y="-40.81" font-family="sans-serif" font-size="14.00">aws_subnet.private_c</text>
</g>
<!-- aws_autoscaling_group.web&#45;&gt;aws_subnet.private_c -->
<g id="edge4" class="edge">
<title>aws_autoscaling_group.web&#45;&gt;aws_subnet.private_c</title>
<path fill="none" stroke="black" d="M1564.98,-912.33C1564.44,-798.71 1555.45,-187.18 1425,-69.51 1328.02,17.96 1163.07,-2.51 1068.46,-24.2"/>
<polygon fill="black" stroke="black" points="1067.62,-20.8 1058.69,-26.5 1069.22,-27.61 1067.62,-20.8"/>
</g>
<!-- aws_db_instance.mariadb_multi_az -->
<g id="node2" class="node">
<title>aws_db_instance.mariadb_multi_az</title>
<polygon fill="none" stroke="black" points="1125,-569.51 865,-569.51 865,-533.51 1125,-533.51 1125,-569.51"/>
<text text-anchor="middle" x="995" y="-547.81" font-family="sans-serif" font-size="14.00">aws_db_instance.mariadb_multi_az</text>
</g>
<!-- aws_db_subnet_group.lab -->
<g id="node3" class="node">
<title>aws_db_subnet_group.lab</title>
<polygon fill="none" stroke="black" points="719,-469.51 523,-469.51 523,-433.51 719,-433.51 719,-469.51"/>
<text text-anchor="middle" x="621" y="-447.81" font-family="sans-serif" font-size="14.00">aws_db_subnet_group.lab</text>
</g>
<!-- aws_db_instance.mariadb_multi_az&#45;&gt;aws_db_subnet_group.lab -->
<g id="edge5" class="edge">
<title>aws_db_instance.mariadb_multi_az&#45;&gt;aws_db_subnet_group.lab</title>
<path fill="none" stroke="black" d="M940.56,-533.51C916.93,-524.87 889.1,-513.73 865,-501.51 848.06,-492.93 846.84,-485.01 829,-478.51 797.6,-467.08 761.96,-460.38 729.21,-456.49"/>
<polygon fill="black" stroke="black" points="729.48,-453 719.15,-455.37 728.7,-459.96 729.48,-453"/>
</g>
<!-- aws_security_group.rds -->
<g id="node26" class="node">
<title>aws_security_group.rds</title>
<polygon fill="none" stroke="black" points="350,-546.51 171,-546.51 171,-510.51 350,-510.51 350,-546.51"/>
<text text-anchor="middle" x="260.5" y="-524.81" font-family="sans-serif" font-size="14.00">aws_security_group.rds</text>
</g>
<!-- aws_db_instance.mariadb_multi_az&#45;&gt;aws_security_group.rds -->
<g id="edge6" class="edge">
<title>aws_db_instance.mariadb_multi_az&#45;&gt;aws_security_group.rds</title>
<path fill="none" stroke="black" d="M864.73,-547.46C720.67,-542.93 490.89,-535.72 360.44,-531.62"/>
<polygon fill="black" stroke="black" points="360.17,-528.11 350.07,-531.3 359.95,-535.11 360.17,-528.11"/>
</g>
<!-- aws_subnet.db_a -->
<g id="node27" class="node">
<title>aws_subnet.db_a</title>
<polygon fill="none" stroke="black" points="328.5,-415.51 192.5,-415.51 192.5,-379.51 328.5,-379.51 328.5,-415.51"/>
<text text-anchor="middle" x="260.5" y="-393.81" font-family="sans-serif" font-size="14.00">aws_subnet.db_a</text>
</g>
<!-- aws_db_subnet_group.lab&#45;&gt;aws_subnet.db_a -->
<g id="edge7" class="edge">
<title>aws_db_subnet_group.lab&#45;&gt;aws_subnet.db_a</title>
<path fill="none" stroke="black" d="M522.98,-436.9C465.13,-428.19 392.67,-417.27 338.72,-409.14"/>
<polygon fill="black" stroke="black" points="338.93,-405.64 328.52,-407.61 337.89,-412.56 338.93,-405.64"/>
</g>
<!-- aws_subnet.db_c -->
<g id="node28" class="node">
<title>aws_subnet.db_c</title>
<polygon fill="none" stroke="black" points="328,-469.51 193,-469.51 193,-433.51 328,-433.51 328,-469.51"/>
<text text-anchor="middle" x="260.5" y="-447.81" font-family="sans-serif" font-size="14.00">aws_subnet.db_c</text>
</g>
<!-- aws_db_subnet_group.lab&#45;&gt;aws_subnet.db_c -->
<g id="edge8" class="edge">
<title>aws_db_subnet_group.lab&#45;&gt;aws_subnet.db_c</title>
<path fill="none" stroke="black" d="M522.98,-451.51C465.03,-451.51 392.43,-451.51 338.44,-451.51"/>
<polygon fill="black" stroke="black" points="338.25,-448.01 328.25,-451.51 338.25,-455.01 338.25,-448.01"/>
</g>
<!-- aws_eip.private_a -->
<g id="node4" class="node">
<title>aws_eip.private_a</title>
<polygon fill="none" stroke="black" points="330.5,-209.51 190.5,-209.51 190.5,-173.51 330.5,-173.51 330.5,-209.51"/>
<text text-anchor="middle" x="260.5" y="-187.81" font-family="sans-serif" font-size="14.00">aws_eip.private_a</text>
</g>
<!-- aws_eip.private_c -->
<g id="node5" class="node">
<title>aws_eip.private_c</title>
<polygon fill="none" stroke="black" points="330,-101.51 191,-101.51 191,-65.51 330,-65.51 330,-101.51"/>
<text text-anchor="middle" x="260.5" y="-79.81" font-family="sans-serif" font-size="14.00">aws_eip.private_c</text>
</g>
<!-- aws_internet_gateway.web -->
<g id="node6" class="node">
<title>aws_internet_gateway.web</title>
<polygon fill="none" stroke="black" points="360.5,-155.51 160.5,-155.51 160.5,-119.51 360.5,-119.51 360.5,-155.51"/>
<text text-anchor="middle" x="260.5" y="-133.81" font-family="sans-serif" font-size="14.00">aws_internet_gateway.web</text>
</g>
<!-- aws_vpc.web -->
<g id="node33" class="node">
<title>aws_vpc.web</title>
<polygon fill="none" stroke="black" points="108,-469.51 0,-469.51 0,-433.51 108,-433.51 108,-469.51"/>
<text text-anchor="middle" x="54" y="-447.81" font-family="sans-serif" font-size="14.00">aws_vpc.web</text>
</g>
<!-- aws_internet_gateway.web&#45;&gt;aws_vpc.web -->
<g id="edge9" class="edge">
<title>aws_internet_gateway.web&#45;&gt;aws_vpc.web</title>
<path fill="none" stroke="black" d="M160.31,-152.89C154.41,-156.11 148.9,-159.95 144,-164.51 69.22,-234.16 56.77,-365.25 55.05,-422.98"/>
<polygon fill="black" stroke="black" points="51.54,-423.12 54.83,-433.2 58.54,-423.27 51.54,-423.12"/>
</g>
<!-- aws_key_pair.my&#45;keypair -->
<g id="node7" class="node">
<title>aws_key_pair.my&#45;keypair</title>
<polygon fill="none" stroke="black" points="1089.5,-1025.51 900.5,-1025.51 900.5,-989.51 1089.5,-989.51 1089.5,-1025.51"/>
<text text-anchor="middle" x="995" y="-1003.81" font-family="sans-serif" font-size="14.00">aws_key_pair.my&#45;keypair</text>
</g>
<!-- aws_launch_template.web&#45;&gt;aws_db_instance.mariadb_multi_az -->
<g id="edge10" class="edge">
<title>aws_launch_template.web&#45;&gt;aws_db_instance.mariadb_multi_az</title>
<path fill="none" stroke="black" d="M1276.91,-889.37C1228.12,-830.69 1074.45,-645.87 1017.51,-577.38"/>
<polygon fill="black" stroke="black" points="1020.14,-575.07 1011.06,-569.62 1014.76,-579.55 1020.14,-575.07"/>
</g>
<!-- aws_launch_template.web&#45;&gt;aws_key_pair.my&#45;keypair -->
<g id="edge11" class="edge">
<title>aws_launch_template.web&#45;&gt;aws_key_pair.my&#45;keypair</title>
<path fill="none" stroke="black" d="M1256.34,-925.67C1223.09,-941.98 1171.72,-965.59 1125,-980.51 1116.77,-983.14 1108.15,-985.59 1099.45,-987.84"/>
<polygon fill="black" stroke="black" points="1098.46,-984.48 1089.6,-990.3 1100.15,-991.27 1098.46,-984.48"/>
</g>
<!-- aws_security_group.private -->
<g id="node25" class="node">
<title>aws_security_group.private</title>
<polygon fill="none" stroke="black" points="363.5,-858.51 157.5,-858.51 157.5,-822.51 363.5,-822.51 363.5,-858.51"/>
<text text-anchor="middle" x="260.5" y="-836.81" font-family="sans-serif" font-size="14.00">aws_security_group.private</text>
</g>
<!-- aws_launch_template.web&#45;&gt;aws_security_group.private -->
<g id="edge12" class="edge">
<title>aws_launch_template.web&#45;&gt;aws_security_group.private</title>
<path fill="none" stroke="black" d="M1193.66,-910.09C996.69,-914.6 560.1,-921.07 413,-894.51 377.7,-888.14 339.67,-874.56 310.55,-862.62"/>
<polygon fill="black" stroke="black" points="311.6,-859.27 301.03,-858.64 308.91,-865.73 311.6,-859.27"/>
</g>
<!-- aws_lb.alb -->
<g id="node9" class="node">
<title>aws_lb.alb</title>
<polygon fill="none" stroke="black" points="665.5,-377.51 576.5,-377.51 576.5,-341.51 665.5,-341.51 665.5,-377.51"/>
<text text-anchor="middle" x="621" y="-355.81" font-family="sans-serif" font-size="14.00">aws_lb.alb</text>
</g>
<!-- aws_security_group.lb_security -->
<g id="node24" class="node">
<title>aws_security_group.lb_security</title>
<polygon fill="none" stroke="black" points="377,-642.51 144,-642.51 144,-606.51 377,-606.51 377,-642.51"/>
<text text-anchor="middle" x="260.5" y="-620.81" font-family="sans-serif" font-size="14.00">aws_security_group.lb_security</text>
</g>
<!-- aws_lb.alb&#45;&gt;aws_security_group.lb_security -->
<g id="edge13" class="edge">
<title>aws_lb.alb&#45;&gt;aws_security_group.lb_security</title>
<path fill="none" stroke="black" d="M576.48,-361.36C529.67,-365.71 456.15,-379.78 413,-424.51 371.08,-467.97 413.55,-507.45 377,-555.51 361.78,-575.52 338.95,-590.9 317.59,-602.01"/>
<polygon fill="black" stroke="black" points="315.94,-598.92 308.55,-606.51 319.06,-605.19 315.94,-598.92"/>
</g>
<!-- aws_subnet.web_a -->
<g id="node31" class="node">
<title>aws_subnet.web_a</title>
<polygon fill="none" stroke="black" points="333.5,-350.51 187.5,-350.51 187.5,-314.51 333.5,-314.51 333.5,-350.51"/>
<text text-anchor="middle" x="260.5" y="-328.81" font-family="sans-serif" font-size="14.00">aws_subnet.web_a</text>
</g>
<!-- aws_lb.alb&#45;&gt;aws_subnet.web_a -->
<g id="edge14" class="edge">
<title>aws_lb.alb&#45;&gt;aws_subnet.web_a</title>
<path fill="none" stroke="black" d="M576.4,-356.23C518.74,-351.89 416,-344.15 343.58,-338.7"/>
<polygon fill="black" stroke="black" points="343.81,-335.2 333.57,-337.94 343.28,-342.18 343.81,-335.2"/>
</g>
<!-- aws_subnet.web_c -->
<g id="node32" class="node">
<title>aws_subnet.web_c</title>
<polygon fill="none" stroke="black" points="333.5,-274.51 187.5,-274.51 187.5,-238.51 333.5,-238.51 333.5,-274.51"/>
<text text-anchor="middle" x="260.5" y="-252.81" font-family="sans-serif" font-size="14.00">aws_subnet.web_c</text>
</g>
<!-- aws_lb.alb&#45;&gt;aws_subnet.web_c -->
<g id="edge15" class="edge">
<title>aws_lb.alb&#45;&gt;aws_subnet.web_c</title>
<path fill="none" stroke="black" d="M576.4,-346.99C516.25,-329.71 407.02,-298.32 334.36,-277.45"/>
<polygon fill="black" stroke="black" points="334.93,-273.97 324.35,-274.57 333,-280.7 334.93,-273.97"/>
</g>
<!-- aws_lb_listener.lb_listener -->
<g id="node10" class="node">
<title>aws_lb_listener.lb_listener</title>
<polygon fill="none" stroke="black" points="1093,-492.51 897,-492.51 897,-456.51 1093,-456.51 1093,-492.51"/>
<text text-anchor="middle" x="995" y="-470.81" font-family="sans-serif" font-size="14.00">aws_lb_listener.lb_listener</text>
</g>
<!-- aws_lb_listener.lb_listener&#45;&gt;aws_lb.alb -->
<g id="edge16" class="edge">
<title>aws_lb_listener.lb_listener&#45;&gt;aws_lb.alb</title>
<path fill="none" stroke="black" d="M935.47,-456.42C864.09,-434.35 744.46,-397.37 675.46,-376.04"/>
<polygon fill="black" stroke="black" points="676.25,-372.62 665.66,-373.01 674.18,-379.31 676.25,-372.62"/>
</g>
<!-- aws_lb_listener_rule.asg -->
<g id="node11" class="node">
<title>aws_lb_listener_rule.asg</title>
<polygon fill="none" stroke="black" points="1385.5,-570.51 1200.5,-570.51 1200.5,-534.51 1385.5,-534.51 1385.5,-570.51"/>
<text text-anchor="middle" x="1293" y="-548.81" font-family="sans-serif" font-size="14.00">aws_lb_listener_rule.asg</text>
</g>
<!-- aws_lb_listener_rule.asg&#45;&gt;aws_lb_listener.lb_listener -->
<g id="edge17" class="edge">
<title>aws_lb_listener_rule.asg&#45;&gt;aws_lb_listener.lb_listener</title>
<path fill="none" stroke="black" d="M1223.35,-534.42C1178.78,-522.68 1120.59,-507.35 1074.24,-495.13"/>
<polygon fill="black" stroke="black" points="1075.1,-491.74 1064.54,-492.57 1073.31,-498.51 1075.1,-491.74"/>
</g>
<!-- aws_lb_listener_rule.asg&#45;&gt;aws_lb_target_group.target -->
<g id="edge18" class="edge">
<title>aws_lb_listener_rule.asg&#45;&gt;aws_lb_target_group.target</title>
<path fill="none" stroke="black" d="M1264.93,-570.56C1236.56,-590.43 1191.9,-624.49 1161,-661.51 1088.46,-748.41 1030.94,-871.72 1007.46,-926.02"/>
<polygon fill="black" stroke="black" points="1004.19,-924.77 1003.48,-935.34 1010.63,-927.52 1004.19,-924.77"/>
</g>
<!-- aws_lb_target_group.target&#45;&gt;aws_vpc.web -->
<g id="edge19" class="edge">
<title>aws_lb_target_group.target&#45;&gt;aws_vpc.web</title>
<path fill="none" stroke="black" d="M907.5,-971.58C872.1,-978.83 837.43,-985.68 829,-986.51 521.5,-1016.96 338.91,-1107.29 144,-867.51 94.8,-806.98 66.2,-563.1 57.7,-479.67"/>
<polygon fill="black" stroke="black" points="61.17,-479.25 56.7,-469.65 54.21,-479.95 61.17,-479.25"/>
</g>
<!-- aws_nat_gateway.private_a -->
<g id="node13" class="node">
<title>aws_nat_gateway.private_a</title>
<polygon fill="none" stroke="black" points="723,-155.51 519,-155.51 519,-119.51 723,-119.51 723,-155.51"/>
<text text-anchor="middle" x="621" y="-133.81" font-family="sans-serif" font-size="14.00">aws_nat_gateway.private_a</text>
</g>
<!-- aws_nat_gateway.private_a&#45;&gt;aws_eip.private_a -->
<g id="edge20" class="edge">
<title>aws_nat_gateway.private_a&#45;&gt;aws_eip.private_a</title>
<path fill="none" stroke="black" d="M518.71,-152.77C462.3,-161.27 393.09,-171.69 340.68,-179.59"/>
<polygon fill="black" stroke="black" points="340.13,-176.13 330.77,-181.08 341.18,-183.05 340.13,-176.13"/>
</g>
<!-- aws_nat_gateway.private_a&#45;&gt;aws_internet_gateway.web -->
<g id="edge21" class="edge">
<title>aws_nat_gateway.private_a&#45;&gt;aws_internet_gateway.web</title>
<path fill="none" stroke="black" d="M518.71,-137.51C472.6,-137.51 417.95,-137.51 370.91,-137.51"/>
<polygon fill="black" stroke="black" points="370.69,-134.01 360.69,-137.51 370.69,-141.01 370.69,-134.01"/>
</g>
<!-- aws_nat_gateway.private_a&#45;&gt;aws_subnet.web_a -->
<g id="edge22" class="edge">
<title>aws_nat_gateway.private_a&#45;&gt;aws_subnet.web_a</title>
<path fill="none" stroke="black" d="M518.91,-151.4C482.07,-160.74 442.3,-176.37 413,-202.51 383.6,-228.74 405.09,-255.9 377,-283.51 365.72,-294.6 351.55,-303.34 337.04,-310.17"/>
<polygon fill="black" stroke="black" points="335.21,-307.15 327.48,-314.39 338.04,-313.55 335.21,-307.15"/>
</g>
<!-- aws_nat_gateway.private_c -->
<g id="node14" class="node">
<title>aws_nat_gateway.private_c</title>
<polygon fill="none" stroke="black" points="722.5,-101.51 519.5,-101.51 519.5,-65.51 722.5,-65.51 722.5,-101.51"/>
<text text-anchor="middle" x="621" y="-79.81" font-family="sans-serif" font-size="14.00">aws_nat_gateway.private_c</text>
</g>
<!-- aws_nat_gateway.private_c&#45;&gt;aws_eip.private_c -->
<g id="edge23" class="edge">
<title>aws_nat_gateway.private_c&#45;&gt;aws_eip.private_c</title>
<path fill="none" stroke="black" d="M519.18,-83.51C462.59,-83.51 393,-83.51 340.41,-83.51"/>
<polygon fill="black" stroke="black" points="340.12,-80.01 330.12,-83.51 340.12,-87.01 340.12,-80.01"/>
</g>
<!-- aws_nat_gateway.private_c&#45;&gt;aws_internet_gateway.web -->
<g id="edge24" class="edge">
<title>aws_nat_gateway.private_c&#45;&gt;aws_internet_gateway.web</title>
<path fill="none" stroke="black" d="M519.32,-95.69C485.48,-100.03 447.56,-105.18 413,-110.51 398.73,-112.71 383.74,-115.19 368.96,-117.72"/>
<polygon fill="black" stroke="black" points="368.04,-114.33 358.78,-119.49 369.23,-121.23 368.04,-114.33"/>
</g>
<!-- aws_nat_gateway.private_c&#45;&gt;aws_subnet.web_c -->
<g id="edge25" class="edge">
<title>aws_nat_gateway.private_c&#45;&gt;aws_subnet.web_c</title>
<path fill="none" stroke="black" d="M519.29,-75.37C482.27,-77.46 442.29,-86.37 413,-110.51 373.96,-142.7 412.85,-182.81 377,-218.51 367.53,-227.95 355.67,-235.05 343.18,-240.38"/>
<polygon fill="black" stroke="black" points="341.6,-237.24 333.55,-244.12 344.14,-243.76 341.6,-237.24"/>
</g>
<!-- aws_route_table.web -->
<g id="node15" class="node">
<title>aws_route_table.web</title>
<polygon fill="none" stroke="black" points="701.5,-247.51 540.5,-247.51 540.5,-211.51 701.5,-211.51 701.5,-247.51"/>
<text text-anchor="middle" x="621" y="-225.81" font-family="sans-serif" font-size="14.00">aws_route_table.web</text>
</g>
<!-- aws_route_table.web&#45;&gt;aws_internet_gateway.web -->
<g id="edge26" class="edge">
<title>aws_route_table.web&#45;&gt;aws_internet_gateway.web</title>
<path fill="none" stroke="black" d="M554.91,-211.5C506.06,-198.13 437.47,-179.67 377,-164.51 368.27,-162.33 359.16,-160.1 350.05,-157.91"/>
<polygon fill="black" stroke="black" points="350.71,-154.47 340.17,-155.55 349.09,-161.28 350.71,-154.47"/>
</g>
<!-- aws_route_table.zone_a -->
<g id="node16" class="node">
<title>aws_route_table.zone_a</title>
<polygon fill="none" stroke="black" points="1085,-177.51 905,-177.51 905,-141.51 1085,-141.51 1085,-177.51"/>
<text text-anchor="middle" x="995" y="-155.81" font-family="sans-serif" font-size="14.00">aws_route_table.zone_a</text>
</g>
<!-- aws_route_table.zone_a&#45;&gt;aws_nat_gateway.private_a -->
<g id="edge27" class="edge">
<title>aws_route_table.zone_a&#45;&gt;aws_nat_gateway.private_a</title>
<path fill="none" stroke="black" d="M904.9,-154.24C853.4,-151.2 788.15,-147.34 733.3,-144.1"/>
<polygon fill="black" stroke="black" points="733.37,-140.59 723.18,-143.5 732.96,-147.58 733.37,-140.59"/>
</g>
<!-- aws_route_table.zone_c -->
<g id="node17" class="node">
<title>aws_route_table.zone_c</title>
<polygon fill="none" stroke="black" points="1084.5,-116.51 905.5,-116.51 905.5,-80.51 1084.5,-80.51 1084.5,-116.51"/>
<text text-anchor="middle" x="995" y="-94.81" font-family="sans-serif" font-size="14.00">aws_route_table.zone_c</text>
</g>
<!-- aws_route_table.zone_c&#45;&gt;aws_nat_gateway.private_c -->
<g id="edge28" class="edge">
<title>aws_route_table.zone_c&#45;&gt;aws_nat_gateway.private_c</title>
<path fill="none" stroke="black" d="M905.37,-94.94C853.68,-92.86 788.02,-90.21 732.92,-87.99"/>
<polygon fill="black" stroke="black" points="732.89,-84.48 722.76,-87.58 732.61,-91.48 732.89,-84.48"/>
</g>
<!-- aws_route_table_association.db_a -->
<g id="node18" class="node">
<title>aws_route_table_association.db_a</title>
<polygon fill="none" stroke="black" points="1417.5,-297.51 1168.5,-297.51 1168.5,-261.51 1417.5,-261.51 1417.5,-297.51"/>
<text text-anchor="middle" x="1293" y="-275.81" font-family="sans-serif" font-size="14.00">aws_route_table_association.db_a</text>
</g>
<!-- aws_route_table_association.db_a&#45;&gt;aws_route_table.zone_a -->
<g id="edge29" class="edge">
<title>aws_route_table_association.db_a&#45;&gt;aws_route_table.zone_a</title>
<path fill="none" stroke="black" d="M1261.97,-261.34C1221.82,-237.31 1152.52,-196.78 1125,-186.51 1115.42,-182.94 1105.24,-179.79 1094.98,-177.02"/>
<polygon fill="black" stroke="black" points="1095.69,-173.59 1085.13,-174.49 1093.95,-180.37 1095.69,-173.59"/>
</g>
<!-- aws_route_table_association.db_a&#45;&gt;aws_subnet.db_a -->
<g id="edge30" class="edge">
<title>aws_route_table_association.db_a&#45;&gt;aws_subnet.db_a</title>
<path fill="none" stroke="black" d="M1168.47,-291.12C1153.82,-292.34 1139.08,-293.51 1125,-294.51 1045.98,-300.17 487.46,-305.47 413,-332.51 394.2,-339.34 394.73,-350.27 377,-359.51 364.88,-365.84 351.49,-371.39 338.26,-376.17"/>
<polygon fill="black" stroke="black" points="336.97,-372.91 328.68,-379.5 339.27,-379.52 336.97,-372.91"/>
</g>
<!-- aws_route_table_association.db_c -->
<g id="node19" class="node">
<title>aws_route_table_association.db_c</title>
<polygon fill="none" stroke="black" points="1417,-193.51 1169,-193.51 1169,-157.51 1417,-157.51 1417,-193.51"/>
<text text-anchor="middle" x="1293" y="-171.81" font-family="sans-serif" font-size="14.00">aws_route_table_association.db_c</text>
</g>
<!-- aws_route_table_association.db_c&#45;&gt;aws_route_table.zone_c -->
<g id="edge31" class="edge">
<title>aws_route_table_association.db_c&#45;&gt;aws_route_table.zone_c</title>
<path fill="none" stroke="black" d="M1222.6,-157.46C1178.42,-145.97 1121.09,-131.05 1075.14,-119.1"/>
<polygon fill="black" stroke="black" points="1075.78,-115.65 1065.22,-116.52 1074.02,-122.43 1075.78,-115.65"/>
</g>
<!-- aws_route_table_association.db_c&#45;&gt;aws_subnet.db_c -->
<g id="edge32" class="edge">
<title>aws_route_table_association.db_c&#45;&gt;aws_subnet.db_c</title>
<path fill="none" stroke="black" d="M1254,-193.57C1226.63,-207.56 1189.63,-228.56 1161,-252.51 1142.15,-268.29 1145.54,-281 1125,-294.51 856.24,-471.27 731.8,-381.62 413,-424.51 388.56,-427.8 362.04,-432.23 338.13,-436.55"/>
<polygon fill="black" stroke="black" points="337.26,-433.15 328.05,-438.39 338.52,-440.03 337.26,-433.15"/>
</g>
<!-- aws_route_table_association.web_a -->
<g id="node20" class="node">
<title>aws_route_table_association.web_a</title>
<polygon fill="none" stroke="black" points="1125,-285.51 865,-285.51 865,-249.51 1125,-249.51 1125,-285.51"/>
<text text-anchor="middle" x="995" y="-263.81" font-family="sans-serif" font-size="14.00">aws_route_table_association.web_a</text>
</g>
<!-- aws_route_table_association.web_a&#45;&gt;aws_route_table.web -->
<g id="edge33" class="edge">
<title>aws_route_table_association.web_a&#45;&gt;aws_route_table.web</title>
<path fill="none" stroke="black" d="M864.94,-254.33C814.41,-249.17 757.67,-243.37 711.75,-238.68"/>
<polygon fill="black" stroke="black" points="711.82,-235.17 701.52,-237.64 711.11,-242.14 711.82,-235.17"/>
</g>
<!-- aws_route_table_association.web_a&#45;&gt;aws_subnet.web_a -->
<g id="edge34" class="edge">
<title>aws_route_table_association.web_a&#45;&gt;aws_subnet.web_a</title>
<path fill="none" stroke="black" d="M864.79,-268.74C746.68,-271.26 567.41,-278.58 413,-299.51 390.11,-302.62 365.55,-307.35 343,-312.26"/>
<polygon fill="black" stroke="black" points="342.14,-308.87 333.14,-314.46 343.66,-315.7 342.14,-308.87"/>
</g>
<!-- aws_route_table_association.web_c -->
<g id="node21" class="node">
<title>aws_route_table_association.web_c</title>
<polygon fill="none" stroke="black" points="1124.5,-231.51 865.5,-231.51 865.5,-195.51 1124.5,-195.51 1124.5,-231.51"/>
<text text-anchor="middle" x="995" y="-209.81" font-family="sans-serif" font-size="14.00">aws_route_table_association.web_c</text>
</g>
<!-- aws_route_table_association.web_c&#45;&gt;aws_route_table.web -->
<g id="edge35" class="edge">
<title>aws_route_table_association.web_c&#45;&gt;aws_route_table.web</title>
<path fill="none" stroke="black" d="M865.46,-219.04C814.89,-221.22 758.04,-223.66 712,-225.64"/>
<polygon fill="black" stroke="black" points="711.59,-222.16 701.75,-226.08 711.89,-229.15 711.59,-222.16"/>
</g>
<!-- aws_route_table_association.web_c&#45;&gt;aws_subnet.web_c -->
<g id="edge36" class="edge">
<title>aws_route_table_association.web_c&#45;&gt;aws_subnet.web_c</title>
<path fill="none" stroke="black" d="M873.43,-195.5C754.87,-181.45 569.42,-169.32 413,-202.51 395.87,-206.15 393.34,-212.21 377,-218.51 361.83,-224.36 345.34,-230.13 329.68,-235.34"/>
<polygon fill="black" stroke="black" points="328.47,-232.05 320.07,-238.51 330.66,-238.7 328.47,-232.05"/>
</g>
<!-- aws_route_table_association.zone_a -->
<g id="node22" class="node">
<title>aws_route_table_association.zone_a</title>
<polygon fill="none" stroke="black" points="1425,-706.51 1161,-706.51 1161,-670.51 1425,-670.51 1425,-706.51"/>
<text text-anchor="middle" x="1293" y="-684.81" font-family="sans-serif" font-size="14.00">aws_route_table_association.zone_a</text>
</g>
<!-- aws_route_table_association.zone_a&#45;&gt;aws_route_table.zone_a -->
<g id="edge37" class="edge">
<title>aws_route_table_association.zone_a&#45;&gt;aws_route_table.zone_a</title>
<path fill="none" stroke="black" d="M1257.78,-670.49C1226.71,-652.11 1182.55,-620.5 1161,-579.51 1120.19,-501.89 1183.35,-251.99 1125,-186.51 1116.79,-177.31 1106.32,-170.78 1094.91,-166.21"/>
<polygon fill="black" stroke="black" points="1095.72,-162.79 1085.12,-162.82 1093.43,-169.4 1095.72,-162.79"/>
</g>
<!-- aws_route_table_association.zone_a&#45;&gt;aws_subnet.private_a -->
<g id="edge38" class="edge">
<title>aws_route_table_association.zone_a&#45;&gt;aws_subnet.private_a</title>
<path fill="none" stroke="black" d="M1276.08,-706.74C1248.47,-739.32 1191.69,-810.7 1161,-880.51 1132.71,-944.86 1175.28,-985.39 1125,-1034.51 1114.86,-1044.42 1102.07,-1051.11 1088.51,-1055.57"/>
<polygon fill="black" stroke="black" points="1087.17,-1052.31 1078.52,-1058.43 1089.1,-1059.04 1087.17,-1052.31"/>
</g>
<!-- aws_route_table_association.zone_c -->
<g id="node23" class="node">
<title>aws_route_table_association.zone_c</title>
<polygon fill="none" stroke="black" points="1424.5,-114.51 1161.5,-114.51 1161.5,-78.51 1424.5,-78.51 1424.5,-114.51"/>
<text text-anchor="middle" x="1293" y="-92.81" font-family="sans-serif" font-size="14.00">aws_route_table_association.zone_c</text>
</g>
<!-- aws_route_table_association.zone_c&#45;&gt;aws_route_table.zone_c -->
<g id="edge39" class="edge">
<title>aws_route_table_association.zone_c&#45;&gt;aws_route_table.zone_c</title>
<path fill="none" stroke="black" d="M1161.31,-97.4C1138.98,-97.55 1116.12,-97.7 1094.8,-97.85"/>
<polygon fill="black" stroke="black" points="1094.77,-94.35 1084.79,-97.91 1094.81,-101.35 1094.77,-94.35"/>
</g>
<!-- aws_route_table_association.zone_c&#45;&gt;aws_subnet.private_c -->
<g id="edge40" class="edge">
<title>aws_route_table_association.zone_c&#45;&gt;aws_subnet.private_c</title>
<path fill="none" stroke="black" d="M1189.3,-78.47C1156.46,-72.7 1120.32,-66.35 1088.26,-60.72"/>
<polygon fill="black" stroke="black" points="1088.46,-57.2 1078.01,-58.92 1087.25,-64.1 1088.46,-57.2"/>
</g>
<!-- aws_security_group.lb_security&#45;&gt;aws_vpc.web -->
<g id="edge41" class="edge">
<title>aws_security_group.lb_security&#45;&gt;aws_vpc.web</title>
<path fill="none" stroke="black" d="M222.64,-606.47C198.9,-593.92 168.1,-575.85 144,-555.51 116.46,-532.28 90.32,-500.08 73.58,-477.69"/>
<polygon fill="black" stroke="black" points="76.39,-475.61 67.65,-469.63 70.76,-479.76 76.39,-475.61"/>
</g>
<!-- aws_security_group.private&#45;&gt;aws_vpc.web -->
<g id="edge42" class="edge">
<title>aws_security_group.private&#45;&gt;aws_vpc.web</title>
<path fill="none" stroke="black" d="M247.38,-822.46C225.39,-789.36 178.06,-716.37 144,-651.51 112.46,-591.47 81.64,-517.94 65.87,-478.92"/>
<polygon fill="black" stroke="black" points="69.08,-477.51 62.1,-469.54 62.58,-480.12 69.08,-477.51"/>
</g>
<!-- aws_security_group.rds&#45;&gt;aws_vpc.web -->
<g id="edge43" class="edge">
<title>aws_security_group.rds&#45;&gt;aws_vpc.web</title>
<path fill="none" stroke="black" d="M211.55,-510.46C181.92,-499.3 143.71,-484.92 112.46,-473.15"/>
<polygon fill="black" stroke="black" points="113.59,-469.84 103,-469.59 111.12,-476.39 113.59,-469.84"/>
</g>
<!-- aws_subnet.db_a&#45;&gt;aws_vpc.web -->
<g id="edge44" class="edge">
<title>aws_subnet.db_a&#45;&gt;aws_vpc.web</title>
<path fill="none" stroke="black" d="M192.44,-412.41C176.51,-416.17 159.61,-420.33 144,-424.51 135.5,-426.79 126.59,-429.33 117.82,-431.9"/>
<polygon fill="black" stroke="black" points="116.61,-428.61 108.02,-434.81 118.6,-435.32 116.61,-428.61"/>
</g>
<!-- aws_subnet.db_c&#45;&gt;aws_vpc.web -->
<g id="edge45" class="edge">
<title>aws_subnet.db_c&#45;&gt;aws_vpc.web</title>
<path fill="none" stroke="black" d="M192.82,-451.51C168.96,-451.51 142.15,-451.51 118.56,-451.51"/>
<polygon fill="black" stroke="black" points="118.32,-448.01 108.32,-451.51 118.32,-455.01 118.32,-448.01"/>
</g>
<!-- aws_subnet.private_a&#45;&gt;aws_vpc.web -->
<g id="edge46" class="edge">
<title>aws_subnet.private_a&#45;&gt;aws_vpc.web</title>
<path fill="none" stroke="black" d="M920.29,-1079.56C754.03,-1115.38 348.42,-1174.46 144,-957.51 77.96,-887.43 60.01,-575.58 56.01,-479.67"/>
<polygon fill="black" stroke="black" points="59.5,-479.43 55.6,-469.57 52.5,-479.71 59.5,-479.43"/>
</g>
<!-- aws_subnet.private_c&#45;&gt;aws_vpc.web -->
<g id="edge47" class="edge">
<title>aws_subnet.private_c&#45;&gt;aws_vpc.web</title>
<path fill="none" stroke="black" d="M911.94,-33.35C722.06,-9.42 259.75,37.4 144,-56.51 86.53,-103.14 63.39,-340.26 56.99,-422.99"/>
<polygon fill="black" stroke="black" points="53.48,-422.93 56.22,-433.17 60.46,-423.46 53.48,-422.93"/>
</g>
<!-- aws_subnet.web_a&#45;&gt;aws_vpc.web -->
<g id="edge48" class="edge">
<title>aws_subnet.web_a&#45;&gt;aws_vpc.web</title>
<path fill="none" stroke="black" d="M188.74,-350.57C173.46,-355.88 157.77,-362.48 144,-370.51 118.8,-385.21 94.62,-407.97 77.84,-425.63"/>
<polygon fill="black" stroke="black" points="74.92,-423.63 70.67,-433.33 80.04,-428.39 74.92,-423.63"/>
</g>
<!-- aws_subnet.web_c&#45;&gt;aws_vpc.web -->
<g id="edge49" class="edge">
<title>aws_subnet.web_c&#45;&gt;aws_vpc.web</title>
<path fill="none" stroke="black" d="M197.6,-274.59C178.98,-282.08 159.41,-292.2 144,-305.51 105.92,-338.39 79.26,-391.72 65.58,-424.02"/>
<polygon fill="black" stroke="black" points="62.32,-422.74 61.75,-433.32 68.8,-425.4 62.32,-422.74"/>
</g>
<!-- aws_vpc_security_group_egress_rule.egress&#45;lb&#45;security -->
<g id="node34" class="node">
<title>aws_vpc_security_group_egress_rule.egress&#45;lb&#45;security</title>
<polygon fill="none" stroke="black" points="821,-777.51 421,-777.51 421,-741.51 821,-741.51 821,-777.51"/>
<text text-anchor="middle" x="621" y="-755.81" font-family="sans-serif" font-size="14.00">aws_vpc_security_group_egress_rule.egress&#45;lb&#45;security</text>
</g>
<!-- aws_vpc_security_group_egress_rule.egress&#45;lb&#45;security&#45;&gt;aws_security_group.lb_security -->
<g id="edge50" class="edge">
<title>aws_vpc_security_group_egress_rule.egress&#45;lb&#45;security&#45;&gt;aws_security_group.lb_security</title>
<path fill="none" stroke="black" d="M439.67,-741.49C430.54,-738.87 421.6,-735.89 413,-732.51 364.09,-713.29 316.15,-674.88 287.71,-649.43"/>
<polygon fill="black" stroke="black" points="289.97,-646.76 280.22,-642.63 285.27,-651.94 289.97,-646.76"/>
</g>
<!-- aws_vpc_security_group_egress_rule.egress&#45;web -->
<g id="node35" class="node">
<title>aws_vpc_security_group_egress_rule.egress&#45;web</title>
<polygon fill="none" stroke="black" points="798.5,-977.51 443.5,-977.51 443.5,-941.51 798.5,-941.51 798.5,-977.51"/>
<text text-anchor="middle" x="621" y="-955.81" font-family="sans-serif" font-size="14.00">aws_vpc_security_group_egress_rule.egress&#45;web</text>
</g>
<!-- aws_vpc_security_group_egress_rule.egress&#45;web&#45;&gt;aws_security_group.private -->
<g id="edge51" class="edge">
<title>aws_vpc_security_group_egress_rule.egress&#45;web&#45;&gt;aws_security_group.private</title>
<path fill="none" stroke="black" d="M462.79,-941.48C445.76,-937.68 428.87,-933.08 413,-927.51 369.5,-912.26 324.25,-884.45 294.66,-864.37"/>
<polygon fill="black" stroke="black" points="296.59,-861.45 286.37,-858.67 292.63,-867.22 296.59,-861.45"/>
</g>
<!-- aws_vpc_security_group_egress_rule.rds_egress -->
<g id="node36" class="node">
<title>aws_vpc_security_group_egress_rule.rds_egress</title>
<polygon fill="none" stroke="black" points="796,-523.51 446,-523.51 446,-487.51 796,-487.51 796,-523.51"/>
<text text-anchor="middle" x="621" y="-501.81" font-family="sans-serif" font-size="14.00">aws_vpc_security_group_egress_rule.rds_egress</text>
</g>
<!-- aws_vpc_security_group_egress_rule.rds_egress&#45;&gt;aws_security_group.rds -->
<g id="edge52" class="edge">
<title>aws_vpc_security_group_egress_rule.rds_egress&#45;&gt;aws_security_group.rds</title>
<path fill="none" stroke="black" d="M445.74,-516.69C416.34,-518.58 386.77,-520.48 360.18,-522.18"/>
<polygon fill="black" stroke="black" points="359.9,-518.69 350.14,-522.83 360.34,-525.68 359.9,-518.69"/>
</g>
<!-- aws_vpc_security_group_ingress_rule.http&#45;lb&#45;security -->
<g id="node37" class="node">
<title>aws_vpc_security_group_ingress_rule.http&#45;lb&#45;security</title>
<polygon fill="none" stroke="black" points="814.5,-669.51 427.5,-669.51 427.5,-633.51 814.5,-633.51 814.5,-669.51"/>
<text text-anchor="middle" x="621" y="-647.81" font-family="sans-serif" font-size="14.00">aws_vpc_security_group_ingress_rule.http&#45;lb&#45;security</text>
</g>
<!-- aws_vpc_security_group_ingress_rule.http&#45;lb&#45;security&#45;&gt;aws_security_group.lb_security -->
<g id="edge53" class="edge">
<title>aws_vpc_security_group_ingress_rule.http&#45;lb&#45;security&#45;&gt;aws_security_group.lb_security</title>
<path fill="none" stroke="black" d="M427.37,-637.01C413.89,-635.99 400.5,-634.98 387.53,-634.01"/>
<polygon fill="black" stroke="black" points="387.45,-630.49 377.22,-633.23 386.93,-637.47 387.45,-630.49"/>
</g>
<!-- aws_vpc_security_group_ingress_rule.http&#45;web -->
<g id="node38" class="node">
<title>aws_vpc_security_group_ingress_rule.http&#45;web</title>
<polygon fill="none" stroke="black" points="792,-831.51 450,-831.51 450,-795.51 792,-795.51 792,-831.51"/>
<text text-anchor="middle" x="621" y="-809.81" font-family="sans-serif" font-size="14.00">aws_vpc_security_group_ingress_rule.http&#45;web</text>
</g>
<!-- aws_vpc_security_group_ingress_rule.http&#45;web&#45;&gt;aws_security_group.lb_security -->
<g id="edge54" class="edge">
<title>aws_vpc_security_group_ingress_rule.http&#45;web&#45;&gt;aws_security_group.lb_security</title>
<path fill="none" stroke="black" d="M449.85,-801.17C437.04,-797.29 424.61,-792.47 413,-786.51 351.89,-755.14 302.39,-688.83 277.98,-651.51"/>
<polygon fill="black" stroke="black" points="280.67,-649.21 272.33,-642.68 274.78,-652.99 280.67,-649.21"/>
</g>
<!-- aws_vpc_security_group_ingress_rule.http&#45;web&#45;&gt;aws_security_group.private -->
<g id="edge55" class="edge">
<title>aws_vpc_security_group_ingress_rule.http&#45;web&#45;&gt;aws_security_group.private</title>
<path fill="none" stroke="black" d="M449.94,-826.32C424.15,-828.26 398.1,-830.23 373.95,-832.05"/>
<polygon fill="black" stroke="black" points="373.43,-828.57 363.72,-832.82 373.95,-835.55 373.43,-828.57"/>
</g>
<!-- aws_vpc_security_group_ingress_rule.mysql_from_private -->
<g id="node39" class="node">
<title>aws_vpc_security_group_ingress_rule.mysql_from_private</title>
<polygon fill="none" stroke="black" points="829,-723.51 413,-723.51 413,-687.51 829,-687.51 829,-723.51"/>
<text text-anchor="middle" x="621" y="-701.81" font-family="sans-serif" font-size="14.00">aws_vpc_security_group_ingress_rule.mysql_from_private</text>
</g>
<!-- aws_vpc_security_group_ingress_rule.mysql_from_private&#45;&gt;aws_security_group.private -->
<g id="edge56" class="edge">
<title>aws_vpc_security_group_ingress_rule.mysql_from_private&#45;&gt;aws_security_group.private</title>
<path fill="none" stroke="black" d="M439.67,-723.54C430.54,-726.16 421.6,-729.13 413,-732.51 364.09,-751.74 316.15,-790.15 287.71,-815.6"/>
<polygon fill="black" stroke="black" points="285.27,-813.09 280.22,-822.4 289.97,-818.27 285.27,-813.09"/>
</g>
<!-- aws_vpc_security_group_ingress_rule.mysql_from_private&#45;&gt;aws_security_group.rds -->
<g id="edge57" class="edge">
<title>aws_vpc_security_group_ingress_rule.mysql_from_private&#45;&gt;aws_security_group.rds</title>
<path fill="none" stroke="black" d="M426.63,-687.43C421.91,-684.73 417.36,-681.77 413,-678.51 381.43,-654.95 403.13,-626.99 377,-597.51 359.85,-578.17 335.94,-562.65 314.32,-551.27"/>
<polygon fill="black" stroke="black" points="315.72,-548.06 305.22,-546.65 312.55,-554.3 315.72,-548.06"/>
</g>
<!-- aws_vpc_security_group_ingress_rule.ssh&#45;lb&#45;security -->
<g id="node40" class="node">
<title>aws_vpc_security_group_ingress_rule.ssh&#45;lb&#45;security</title>
<polygon fill="none" stroke="black" points="812.5,-615.51 429.5,-615.51 429.5,-579.51 812.5,-579.51 812.5,-615.51"/>
<text text-anchor="middle" x="621" y="-593.81" font-family="sans-serif" font-size="14.00">aws_vpc_security_group_ingress_rule.ssh&#45;lb&#45;security</text>
</g>
<!-- aws_vpc_security_group_ingress_rule.ssh&#45;lb&#45;security&#45;&gt;aws_security_group.lb_security -->
<g id="edge58" class="edge">
<title>aws_vpc_security_group_ingress_rule.ssh&#45;lb&#45;security&#45;&gt;aws_security_group.lb_security</title>
<path fill="none" stroke="black" d="M429.47,-611.86C415.33,-612.93 401.28,-613.99 387.68,-615.01"/>
<polygon fill="black" stroke="black" points="387.08,-611.55 377.38,-615.79 387.61,-618.53 387.08,-611.55"/>
</g>
<!-- aws_vpc_security_group_ingress_rule.ssh&#45;web -->
<g id="node41" class="node">
<title>aws_vpc_security_group_ingress_rule.ssh&#45;web</title>
<polygon fill="none" stroke="black" points="790,-885.51 452,-885.51 452,-849.51 790,-849.51 790,-885.51"/>
<text text-anchor="middle" x="621" y="-863.81" font-family="sans-serif" font-size="14.00">aws_vpc_security_group_ingress_rule.ssh&#45;web</text>
</g>
<!-- aws_vpc_security_group_ingress_rule.ssh&#45;web&#45;&gt;aws_security_group.private -->
<g id="edge59" class="edge">
<title>aws_vpc_security_group_ingress_rule.ssh&#45;web&#45;&gt;aws_security_group.private</title>
<path fill="none" stroke="black" d="M451.77,-854.84C425.39,-852.86 398.69,-850.85 373.96,-848.98"/>
<polygon fill="black" stroke="black" points="374.1,-845.48 363.86,-848.22 373.57,-852.46 374.1,-845.48"/>
</g>
</g>
</svg>
